<svg xmlns="http://www.w3.org/2000/svg" xmlns:xlink="http://www.w3.org/1999/xlink" width="147" height="64" viewBox="0 0 147 64"><defs><clipPath id="b"><rect width="147" height="64"/></clipPath></defs><g id="a" clip-path="url(#b)"><g transform="translate(-69 -58)"><g transform="translate(-395.862 123.803)"><g transform="translate(465.452 -50.031)" fill="none" stroke-linecap="round" stroke-linejoin="round"><path d="M16.118-1.92A4.584,4.584,0,0,1,15.8-.191a4.145,4.145,0,0,1-.9,1.384,4.109,4.109,0,0,1-1.378.912,4.542,4.542,0,0,1-1.741.328H.41v-3.1H11.777A1.2,1.2,0,0,0,12.671-1a1.264,1.264,0,0,0,.322-.924v-12.75h3.125ZM39.578-4.485a7.521,7.521,0,0,1-.537,2.874A6.813,6.813,0,0,1,37.55.656a6.752,6.752,0,0,1-2.26,1.485,7.485,7.485,0,0,1-2.845.531h-4.2A7.53,7.53,0,0,1,25.4,2.141,6.738,6.738,0,0,1,23.13.656a6.889,6.889,0,0,1-1.5-2.266,7.448,7.448,0,0,1-.543-2.874V-7.753a7.461,7.461,0,0,1,.543-2.869,6.808,6.808,0,0,1,1.5-2.266A6.86,6.86,0,0,1,25.4-14.372a7.457,7.457,0,0,1,2.851-.537h4.2a7.412,7.412,0,0,1,2.845.537,6.874,6.874,0,0,1,2.26,1.485,6.733,6.733,0,0,1,1.491,2.266,7.534,7.534,0,0,1,.537,2.869Zm-3.1-3.268a4.525,4.525,0,0,0-.292-1.664,3.678,3.678,0,0,0-.823-1.276,3.678,3.678,0,0,0-1.276-.823,4.457,4.457,0,0,0-1.64-.292h-4.2a4.491,4.491,0,0,0-1.652.292,3.741,3.741,0,0,0-1.282.823,3.636,3.636,0,0,0-.829,1.276,4.525,4.525,0,0,0-.292,1.664v3.268a4.525,4.525,0,0,0,.292,1.664,3.636,3.636,0,0,0,.829,1.276,3.741,3.741,0,0,0,1.282.823,4.491,4.491,0,0,0,1.652.292h4.175a4.491,4.491,0,0,0,1.652-.292,3.741,3.741,0,0,0,1.282-.823,3.635,3.635,0,0,0,.829-1.276,4.525,4.525,0,0,0,.292-1.664ZM61.033-2.6A5.455,5.455,0,0,1,60.8-.948,4.934,4.934,0,0,1,60.186.346a4.1,4.1,0,0,1-.895.954,5.486,5.486,0,0,1-1.062.644,5.318,5.318,0,0,1-1.115.37,5.192,5.192,0,0,1-1.068.119H44.084v-3.1H56.047a1.818,1.818,0,0,0,1.39-.525A1.968,1.968,0,0,0,57.932-2.6a2.271,2.271,0,0,0-.131-.787,1.814,1.814,0,0,0-.376-.62,1.655,1.655,0,0,0-.6-.406,2.055,2.055,0,0,0-.781-.143H48.915a5.528,5.528,0,0,1-1.622-.268,4.866,4.866,0,0,1-1.616-.865,4.719,4.719,0,0,1-1.24-1.562,5.135,5.135,0,0,1-.495-2.362,5.1,5.1,0,0,1,.495-2.356,4.8,4.8,0,0,1,1.24-1.562,4.811,4.811,0,0,1,1.616-.871,5.528,5.528,0,0,1,1.622-.268H59.47v3.1H48.915a1.781,1.781,0,0,0-1.378.537,2.011,2.011,0,0,0-.495,1.419A1.963,1.963,0,0,0,47.537-8.2a1.813,1.813,0,0,0,1.378.519h7.156a5.476,5.476,0,0,1,1.062.137,5.314,5.314,0,0,1,1.115.388,5.381,5.381,0,0,1,1.056.662,4.468,4.468,0,0,1,.889.96,4.712,4.712,0,0,1,.614,1.288A5.529,5.529,0,0,1,61.033-2.6ZM79.626-4.556H69.833V-7.681h9.792Zm1.4,6.989H69.833a4.973,4.973,0,0,1-1.407-.227,4.139,4.139,0,0,1-1.413-.745A4.181,4.181,0,0,1,65.927.113a4.332,4.332,0,0,1-.435-2.034V-13.108a1.566,1.566,0,0,1,.119-.608,1.586,1.586,0,0,1,.328-.5,1.471,1.471,0,0,1,.495-.334,1.6,1.6,0,0,1,.62-.119H81.021v3.1H68.593V-1.92a1.26,1.26,0,0,0,.322.93,1.277,1.277,0,0,0,.942.322H81.021Z" stroke="none"/><path d="M 32.44500350952148 2.671682834625244 C 33.47074890136719 2.671682834625244 34.41897201538086 2.494760513305664 35.28966903686523 2.140916109085083 C 36.16036987304688 1.787071704864502 36.91377258300781 1.292082786560059 37.54989242553711 0.6559605598449707 C 38.18601608276367 0.01983831636607647 38.6829948425293 -0.7355616688728333 39.04080581665039 -1.610228300094604 C 39.39862823486328 -2.484894990921021 39.57753753662109 -3.443061590194702 39.57753753662109 -4.484705924987793 L 39.57753753662109 -7.752795219421387 C 39.57753753662109 -8.786483764648438 39.39862823486328 -9.742661476135254 39.04080581665039 -10.62130641937256 C 38.6829948425293 -11.49995040893555 38.18601608276367 -12.25535011291504 37.54989242553711 -12.88749504089355 C 36.91377258300781 -13.51965045928955 36.16036987304688 -14.01462841033936 35.28966903686523 -14.37245082855225 C 34.41897201538086 -14.73027324676514 33.47074890136719 -14.90918350219727 32.44500350952148 -14.90918350219727 L 28.2465934753418 -14.90918350219727 C 27.22084808349609 -14.90918350219727 26.27063751220703 -14.73027324676514 25.39597129821777 -14.37245082855225 C 24.52129364013672 -14.01462841033936 23.76590347290039 -13.51965045928955 23.12978172302246 -12.88749504089355 C 22.49365997314453 -12.25535011291504 21.99469375610352 -11.49995040893555 21.63290405273438 -10.62130641937256 C 21.27110481262207 -9.742661476135254 21.0902042388916 -8.786483764648438 21.0902042388916 -7.752795219421387 L 21.0902042388916 -4.484705924987793 C 21.0902042388916 -3.443061590194702 21.27110481262207 -2.484894990921021 21.63290405273438 -1.610228300094604 C 21.99469375610352 -0.7355616688728333 22.49365997314453 0.01983831636607647 23.12978172302246 0.6559605598449707 C 23.76590347290039 1.292082786560059 24.52129364013672 1.787071704864502 25.39597129821777 2.140916109085083 C 26.27063751220703 2.494760513305664 27.22084808349609 2.671682834625244 28.2465934753418 2.671682834625244 L 32.44500350952148 2.671682834625244 M 28.2465934753418 -11.80808353424072 L 32.44500350952148 -11.80808353424072 C 33.0413703918457 -11.80807304382324 33.58803939819336 -11.71067237854004 34.08501434326172 -11.51586151123047 C 34.58198165893555 -11.3210506439209 35.00739288330078 -11.04671764373779 35.36123657226563 -10.69287300109863 C 35.71508026123047 -10.33902835845947 35.98940277099609 -9.913628578186035 36.1842155456543 -9.416650772094727 C 36.3790283203125 -8.919683456420898 36.47643661499023 -8.36506175994873 36.47643661499023 -7.752795219421387 L 36.47643661499023 -4.484705924987793 C 36.47643661499023 -3.872439384460449 36.3790283203125 -3.317817211151123 36.1842155456543 -2.820850610733032 C 35.98940277099609 -2.323872804641724 35.71309280395508 -1.898472785949707 35.35527038574219 -1.544628381729126 C 34.9974479675293 -1.190783858299255 34.57006072998047 -0.916450560092926 34.07308197021484 -0.7216394543647766 C 33.57611465454102 -0.5268283486366272 33.02547073364258 -0.4294172525405884 32.42116165161133 -0.4294172525405884 L 28.2465934753418 -0.4294172525405884 C 27.64228248596191 -0.4294172525405884 27.09163665771484 -0.5268283486366272 26.59465980529785 -0.7216394543647766 C 26.09769248962402 -0.916450560092926 25.6702938079834 -1.190783858299255 25.31247138977051 -1.544628381729126 C 24.95466041564941 -1.898472785949707 24.67833709716797 -2.323872804641724 24.4835262298584 -2.820850610733032 C 24.28871536254883 -3.317817211151123 24.19130325317383 -3.872439384460449 24.19130325317383 -4.484705924987793 L 24.19130325317383 -7.752795219421387 C 24.19130325317383 -8.36506175994873 24.28871536254883 -8.919683456420898 24.4835262298584 -9.416650772094727 C 24.67833709716797 -9.913617134094238 24.95466041564941 -10.33902835845947 25.31247138977051 -10.69287300109863 C 25.6702938079834 -11.04671764373779 26.09769248962402 -11.3210506439209 26.59465980529785 -11.51586151123047 C 27.09163665771484 -11.71067237854004 27.64228248596191 -11.80808353424072 28.2465934753418 -11.80808353424072 M 81.02114105224609 2.433127164840698 L 81.02114105224609 -0.6679728031158447 L 69.85717010498047 -0.6679728031158447 C 69.44369506835938 -0.6679728031158447 69.12960052490234 -0.7753172516822815 68.9149169921875 -0.990006148815155 C 68.70022583007813 -1.204694986343384 68.59288024902344 -1.514806151390076 68.59288024902344 -1.920339465141296 L 68.59288024902344 -11.56952857971191 L 81.02114105224609 -11.56952857971191 L 81.02114105224609 -14.67062854766846 L 67.05426025390625 -14.67062854766846 C 66.83161163330078 -14.67062854766846 66.62488555908203 -14.63087272644043 66.43403625488281 -14.55136203765869 C 66.24320220947266 -14.47183990478516 66.07820129394531 -14.36051750183105 65.93904876708984 -14.21739482879639 C 65.79990386962891 -14.07426166534424 65.69057464599609 -13.90728378295898 65.61104583740234 -13.71645069122314 C 65.53152465820313 -13.52560615539551 65.49178314208984 -13.32285022735596 65.49178314208984 -13.10815048217773 L 65.49178314208984 -1.920339465141296 C 65.49178314208984 -1.117228388786316 65.63689422607422 -0.4393616914749146 65.92711639404297 0.1132716536521912 C 66.21736145019531 0.6659049987792969 66.57916259765625 1.115160584449768 67.01250457763672 1.461060523986816 C 67.44586944580078 1.806949377059937 67.9169921875 2.055438280105591 68.4259033203125 2.206516027450562 C 68.93479156494141 2.357593774795532 69.40393829345703 2.433127164840698 69.83331298828125 2.433127164840698 L 81.02114105224609 2.433127164840698 M 56.04724884033203 2.433127164840698 C 56.3812141418457 2.433127164840698 56.7370491027832 2.39337158203125 57.11474990844727 2.313860654830933 C 57.49244689941406 2.234349489212036 57.86417007446289 2.111093759536743 58.22994995117188 1.944116115570068 C 58.59572601318359 1.777127146720886 58.94955825805664 1.562438368797302 59.29148101806641 1.30003833770752 C 59.63339233398438 1.037638306617737 59.93158340454102 0.7195716500282288 60.18602752685547 0.3458494246006012 C 60.44047164916992 -0.02787279523909092 60.64522552490234 -0.4592394530773163 60.8002815246582 -0.9482616782188416 C 60.95533752441406 -1.437283873558044 61.03285980224609 -1.98792839050293 61.03285980224609 -2.600194931030273 C 61.03285980224609 -3.212461709976196 60.95732498168945 -3.761117219924927 60.80624771118164 -4.246161460876465 C 60.65515899658203 -4.731205940246582 60.45041656494141 -5.160594940185547 60.19199371337891 -5.534317016601563 C 59.93355941772461 -5.908028125762939 59.63737106323242 -6.228084087371826 59.30341720581055 -6.494461536407471 C 58.96944808959961 -6.760839462280273 58.61758041381836 -6.981494903564453 58.24784851074219 -7.156428337097168 C 57.87810516357422 -7.331361770629883 57.5063591003418 -7.460572719573975 57.13263702392578 -7.544061660766602 C 56.75891494750977 -7.627550601959229 56.40507125854492 -7.673272609710693 56.07110595703125 -7.681228160858154 L 56.04724884033203 -7.681228160858154 L 48.91471481323242 -7.681228160858154 C 48.3262939453125 -7.681228160858154 47.86709213256836 -7.854172706604004 47.53711700439453 -8.200061798095703 C 47.20712661743164 -8.545961380004883 47.0421257019043 -9.017084121704102 47.0421257019043 -9.61345100402832 C 47.0421257019043 -10.20186138153076 47.20712661743164 -10.67498397827148 47.53711700439453 -11.03280639648438 C 47.86709213256836 -11.39061737060547 48.3262939453125 -11.56952857971191 48.91471481323242 -11.56952857971191 L 59.47038269042969 -11.56952857971191 L 59.47038269042969 -14.67062854766846 L 48.91471481323242 -14.67062854766846 C 48.41377258300781 -14.67062854766846 47.87306976318359 -14.58117294311523 47.2926025390625 -14.40226173400879 C 46.7121467590332 -14.22336196899414 46.17342758178711 -13.93312835693359 45.67644882202148 -13.53157234191895 C 45.17948150634766 -13.13001728057861 44.7660026550293 -12.6091947555542 44.43600463867188 -11.96909523010254 C 44.10602569580078 -11.32899475097656 43.94102478027344 -10.54378414154053 43.94102478027344 -9.61345100402832 C 43.94102478027344 -8.683116912841797 44.10602569580078 -7.895917415618896 44.43600463867188 -7.251850605010986 C 44.7660026550293 -6.607772827148438 45.17948150634766 -6.086939334869385 45.67644882202148 -5.689373016357422 C 46.17342758178711 -5.291795253753662 46.7121467590332 -5.00355052947998 47.2926025390625 -4.824639320373535 C 47.87306976318359 -4.645728588104248 48.41377258300781 -4.556272983551025 48.91471481323242 -4.556272983551025 L 56.04724884033203 -4.556272983551025 C 56.33350372314453 -4.556272983551025 56.59391403198242 -4.508561611175537 56.8284912109375 -4.413150787353516 C 57.06306076049805 -4.317728519439697 57.26184844970703 -4.182550430297852 57.42485046386719 -4.007617473602295 C 57.58786010742188 -3.832683801651001 57.71310424804688 -3.62593936920166 57.80055999755859 -3.387394905090332 C 57.88803863525391 -3.148850679397583 57.93175888061523 -2.886450529098511 57.93175888061523 -2.600194931030273 C 57.93175888061523 -2.011783838272095 57.76678085327148 -1.542639493942261 57.43678283691406 -1.192772746086121 C 57.10679244995117 -0.84290611743927 56.64361572265625 -0.6679728031158447 56.04724884033203 -0.6679728031158447 L 44.08414840698242 -0.6679728031158447 L 44.08414840698242 2.433127164840698 L 56.04724884033203 2.433127164840698 M 11.77688217163086 2.433127164840698 C 12.40505981445313 2.433127164840698 12.98551559448242 2.323793888092041 13.51827049255371 2.105127096176147 C 14.05102634429932 1.886460542678833 14.51022624969482 1.582316040992737 14.89588165283203 1.192693829536438 C 15.28152656555176 0.8030716776847839 15.58169269561768 0.3418827652931213 15.79639339447021 -0.1908727884292603 C 16.01108169555664 -0.7236283421516418 16.11842727661133 -1.300117254257202 16.11842727661133 -1.920339465141296 L 16.11842727661133 -14.67062854766846 L 12.99347114562988 -14.67062854766846 L 12.99347114562988 -1.920339465141296 C 12.99347114562988 -1.522761702537537 12.88612651824951 -1.21463942527771 12.67143726348877 -0.9959728121757507 C 12.45673751831055 -0.7773061394691467 12.15855979919434 -0.6679728031158447 11.77688217163086 -0.6679728031158447 L 0.4101597666740417 -0.6679728031158447 L 0.4101597666740417 2.433127164840698 L 11.77688217163086 2.433127164840698 M 79.62564086914063 -4.556272983551025 L 79.62564086914063 -7.681228160858154 L 69.83331298828125 -7.681228160858154 L 69.83331298828125 -4.556272983551025 L 79.62564086914063 -4.556272983551025 M 32.44500350952148 3.671682834625244 L 28.2465934753418 3.671682834625244 C 27.09650421142578 3.671682834625244 26.01123809814453 3.468549489974976 25.02094841003418 3.067927122116089 C 24.02537155151367 2.665182828903198 23.15119361877441 2.091582775115967 22.42267036437988 1.36307168006897 C 21.69606018066406 0.636460542678833 21.11944770812988 -0.23530612885952 20.70883750915527 -1.22800612449646 C 20.29833793640137 -2.220383882522583 20.0902042388916 -3.316106081008911 20.0902042388916 -4.484705924987793 L 20.0902042388916 -7.752795219421387 C 20.0902042388916 -8.912928581237793 20.29813766479492 -10.00613975524902 20.70822715759277 -11.00206184387207 C 21.11925888061523 -12.00029468536377 21.69683837890625 -12.87330627441406 22.42489242553711 -13.59681701660156 C 23.1519603729248 -14.31935024261475 24.0241813659668 -14.8917064666748 25.01733779907227 -15.29799461364746 C 26.00868225097656 -15.70355033874512 27.09515953063965 -15.90918350219727 28.2465934753418 -15.90918350219727 L 32.44500350952148 -15.90918350219727 C 33.59698104858398 -15.90918350219727 34.68196105957031 -15.70335102081299 35.66978073120117 -15.29739475250244 C 36.65838241577148 -14.89111709594727 37.52810287475586 -14.31896209716797 38.25478363037109 -13.59680652618408 C 38.98379135131836 -12.87236213684082 39.55984878540039 -11.99815082550049 39.96694946289063 -10.99846172332764 C 40.37210464477539 -10.00359535217285 40.57753753662109 -8.911595344543457 40.57753753662109 -7.752795219421387 L 40.57753753662109 -4.484705924987793 C 40.57753753662109 -3.317439556121826 40.37190246582031 -2.222939491271973 39.96635055541992 -1.231595039367676 C 39.55966949462891 -0.2374616861343384 38.98455810546875 0.6355049610137939 38.25700378417969 1.36307168006897 C 37.52886962890625 2.091193914413452 36.65719223022461 2.664593935012817 35.66616058349609 3.067338228225708 C 34.67939376831055 3.468349456787109 33.59563827514648 3.671682834625244 32.44500350952148 3.671682834625244 Z M 28.2465934753418 -10.80808353424072 C 27.77052688598633 -10.80808353424072 27.33751487731934 -10.73297309875488 26.95961570739746 -10.58483982086182 C 26.58703804016113 -10.43878364562988 26.27824783325195 -10.24153900146484 26.01561546325684 -9.981828689575195 C 25.75578117370605 -9.724872589111328 25.55917167663574 -9.42061710357666 25.41454887390137 -9.051684379577637 C 25.26641464233398 -8.673794746398926 25.19130325317383 -8.236783981323242 25.19130325317383 -7.752795219421387 L 25.19130325317383 -4.484705924987793 C 25.19130325317383 -4.000717163085938 25.26641464233398 -3.563706159591675 25.41454887390137 -3.185817241668701 C 25.55917167663574 -2.81688380241394 25.75578117370605 -2.512628316879272 26.01562690734863 -2.255661725997925 C 26.27824783325195 -1.995961666107178 26.58703804016113 -1.798717260360718 26.95962715148926 -1.652661681175232 C 27.33751487731934 -1.504528403282166 27.77052688598633 -1.429417252540588 28.2465934753418 -1.429417252540588 L 32.42116165161133 -1.429417252540588 C 32.8972282409668 -1.429417252540588 33.33022689819336 -1.504528403282166 33.70811462402344 -1.652661681175232 C 34.08070373535156 -1.798717260360718 34.38949203491211 -1.995961666107178 34.65212631225586 -2.255672693252563 C 34.91196060180664 -2.512617349624634 35.10857009887695 -2.816872835159302 35.25319290161133 -3.185806035995483 C 35.40132522583008 -3.563706159591675 35.47643661499023 -4.000717163085938 35.47643661499023 -4.484705924987793 L 35.47643661499023 -7.752795219421387 C 35.47643661499023 -8.236783981323242 35.40132522583008 -8.673794746398926 35.25319290161133 -9.051684379577637 C 35.10784912109375 -9.42246150970459 34.91190338134766 -9.727994918823242 34.65412521362305 -9.985761642456055 C 34.39635848999023 -10.24353981018066 34.09081649780273 -10.43949508666992 33.72004699707031 -10.58483982086182 C 33.34218215942383 -10.73296165466309 32.91318130493164 -10.80807304382324 32.44498062133789 -10.80808353424072 L 28.2465934753418 -10.80808353424072 Z M 81.02114105224609 3.433127164840698 L 69.83331298828125 3.433127164840698 C 69.30950164794922 3.433127164840698 68.74022674560547 3.342971563339233 68.14130401611328 3.165160655975342 C 67.51081848144531 2.977993965148926 66.92113494873047 2.667604923248291 66.38869476318359 2.242638349533081 C 65.84854888916016 1.811482787132263 65.39539337158203 1.251505017280579 65.04179382324219 0.578249454498291 C 64.67682647705078 -0.1167061254382133 64.49178314208984 -0.9573505520820618 64.49178314208984 -1.920339465141296 L 64.49178314208984 -13.10815048217773 C 64.49178314208984 -13.4545841217041 64.55779266357422 -13.78865051269531 64.68798065185547 -14.10108375549316 C 64.81575012207031 -14.40770626068115 64.99542999267578 -14.68135070800781 65.22202301025391 -14.91443920135498 C 65.45545959472656 -15.15452861785889 65.73380279541016 -15.34291744232178 66.04939270019531 -15.47442817687988 C 66.36189270019531 -15.60462856292725 66.69995880126953 -15.67062854766846 67.05426025390625 -15.67062854766846 L 81.02114105224609 -15.67062854766846 C 81.57342529296875 -15.67062854766846 82.02114105224609 -15.2229175567627 82.02114105224609 -14.67062854766846 L 82.02114105224609 -11.56952857971191 C 82.02114105224609 -11.01723957061768 81.57342529296875 -10.56952857971191 81.02114105224609 -10.56952857971191 L 69.59288024902344 -10.56952857971191 L 69.59288024902344 -8.652135848999023 C 69.66989898681641 -8.671145439147949 69.75042724609375 -8.681228637695313 69.83331298828125 -8.681228637695313 L 79.62564086914063 -8.681228637695313 C 80.17792510986328 -8.681228637695313 80.62564086914063 -8.233517646789551 80.62564086914063 -7.681228160858154 L 80.62564086914063 -4.556272983551025 C 80.62564086914063 -4.003983974456787 80.17792510986328 -3.556272745132446 79.62564086914063 -3.556272745132446 L 69.83331298828125 -3.556272745132446 C 69.75042724609375 -3.556272745132446 69.66989898681641 -3.56635570526123 69.59288024902344 -3.585365772247314 L 69.59288024902344 -1.920339465141296 C 69.59288024902344 -1.783840298652649 69.61415863037109 -1.719773530960083 69.62279510498047 -1.699421286582947 C 69.64459228515625 -1.690330386161804 69.71292877197266 -1.667972803115845 69.85717010498047 -1.667972803115845 L 81.02114105224609 -1.667972803115845 C 81.57342529296875 -1.667972803115845 82.02114105224609 -1.220261693000793 82.02114105224609 -0.6679728031158447 L 82.02114105224609 2.433127164840698 C 82.02114105224609 2.985416173934937 81.57342529296875 3.433127164840698 81.02114105224609 3.433127164840698 Z M 56.04724884033203 3.433127164840698 L 44.08414840698242 3.433127164840698 C 43.5318603515625 3.433127164840698 43.08414840698242 2.985416173934937 43.08414840698242 2.433127164840698 L 43.08414840698242 -0.6679728031158447 C 43.08414840698242 -1.220261693000793 43.5318603515625 -1.667972803115845 44.08414840698242 -1.667972803115845 L 56.04724884033203 -1.667972803115845 C 56.46234893798828 -1.667972803115845 56.62390518188477 -1.788361668586731 56.70931625366211 -1.878917217254639 C 56.76433944702148 -1.93725061416626 56.93175888061523 -2.114750623703003 56.93175888061523 -2.600194931030273 C 56.93175888061523 -2.767317295074463 56.9081916809082 -2.916328430175781 56.8616943359375 -3.043095111846924 C 56.82019424438477 -3.15629506111145 56.76510238647461 -3.248772859573364 56.6932487487793 -3.325883865356445 C 56.62992477416992 -3.393839359283447 56.5509147644043 -3.446495056152344 56.45168304443359 -3.486861705780029 C 56.33845901489258 -3.532917261123657 56.20236968994141 -3.556272745132446 56.04724884033203 -3.556272745132446 L 48.91471481323242 -3.556272745132446 C 48.31616973876953 -3.556272745132446 47.67131423950195 -3.661494970321655 46.9980583190918 -3.869006156921387 C 46.29974746704102 -4.084239482879639 45.64491653442383 -4.433972835540771 45.05176162719727 -4.908505916595459 C 44.44599151611328 -5.393105983734131 43.93938064575195 -6.028106212615967 43.54601669311523 -6.795861721038818 C 43.14456939697266 -7.579428195953369 42.94102478027344 -8.527395248413086 42.94102478027344 -9.61345100402832 C 42.94102478027344 -10.70038414001465 43.14495849609375 -11.6471061706543 43.54716110229492 -12.42730617523193 C 43.93967056274414 -13.18866157531738 44.44461441040039 -13.82187271118164 45.04795837402344 -14.30939483642578 C 45.64205932617188 -14.7894172668457 46.29817199707031 -15.14218425750732 46.99806976318359 -15.35790634155273 C 47.67131423950195 -15.56540584564209 48.31616973876953 -15.67062854766846 48.91471481323242 -15.67062854766846 L 59.47038269042969 -15.67062854766846 C 60.02267074584961 -15.67062854766846 60.47038269042969 -15.2229175567627 60.47038269042969 -14.67062854766846 L 60.47038269042969 -11.56952857971191 C 60.47038269042969 -11.01723957061768 60.02267074584961 -10.56952857971191 59.47038269042969 -10.56952857971191 L 48.91471481323242 -10.56952857971191 C 48.47019195556641 -10.56952857971191 48.32638168334961 -10.41357326507568 48.27223587036133 -10.35487270355225 C 48.21532821655273 -10.29315090179443 48.0421257019043 -10.10535049438477 48.0421257019043 -9.61345100402832 C 48.0421257019043 -9.119405746459961 48.20661544799805 -8.946994781494141 48.26066970825195 -8.890328407287598 C 48.34630584716797 -8.800561904907227 48.50727081298828 -8.681228637695313 48.91471481323242 -8.681228637695313 L 56.04724884033203 -8.681228637695313 L 56.07110595703125 -8.681228637695313 C 56.07904815673828 -8.681228637695313 56.08698272705078 -8.68112850189209 56.09491348266602 -8.680939674377441 C 56.49253845214844 -8.671472549438477 56.9150276184082 -8.617328643798828 57.35065841674805 -8.52000617980957 C 57.79487228393555 -8.420772552490234 58.24061584472656 -8.266128540039063 58.67551422119141 -8.060361862182617 C 59.11325836181641 -7.853250503540039 59.53430557250977 -7.589439392089844 59.92697143554688 -7.276239395141602 C 60.33576965332031 -6.950161457061768 60.7016487121582 -6.555472850799561 61.01448059082031 -6.103095054626465 C 61.32932662963867 -5.647783756256104 61.58048248291016 -5.123095035552979 61.76100540161133 -4.543561458587646 C 61.9413948059082 -3.964395046234131 62.03285980224609 -3.310561656951904 62.03285980224609 -2.600194931030273 C 62.03285980224609 -1.888095021247864 61.93886947631836 -1.23061728477478 61.75351715087891 -0.6460172533988953 C 61.56982803344727 -0.06670612841844559 61.32056045532227 0.4563494324684143 61.01262664794922 0.9086382985115051 C 60.69940567016602 1.368693828582764 60.32517242431641 1.767282724380493 59.90030288696289 2.093349456787109 C 59.50014877319336 2.40043830871582 59.0778923034668 2.656282663345337 58.64524841308594 2.853805065155029 C 58.21421432495117 3.05057168006897 57.76859283447266 3.198138236999512 57.32074737548828 3.292416095733643 C 56.87720489501953 3.385782718658447 56.44873809814453 3.433127164840698 56.04724884033203 3.433127164840698 Z M 11.77688217163086 3.433127164840698 L 0.4101597666740417 3.433127164840698 C -0.142129123210907 3.433127164840698 -0.5898402333259583 2.985416173934937 -0.5898402333259583 2.433127164840698 L -0.5898402333259583 -0.6679728031158447 C -0.5898402333259583 -1.220261693000793 -0.142129123210907 -1.667972803115845 0.4101597666740417 -1.667972803115845 L 11.77688217163086 -1.667972803115845 C 11.9032154083252 -1.667972803115845 11.95327091217041 -1.691872835159302 11.95789337158203 -1.696572780609131 C 11.96372604370117 -1.702528357505798 11.99347114562988 -1.765417218208313 11.99347114562988 -1.920339465141296 L 11.99347114562988 -14.67062854766846 C 11.99347114562988 -15.2229175567627 12.44118213653564 -15.67062854766846 12.99347114562988 -15.67062854766846 L 16.11842727661133 -15.67062854766846 C 16.67071533203125 -15.67062854766846 17.11842727661133 -15.2229175567627 17.11842727661133 -14.67062854766846 L 17.11842727661133 -1.920339465141296 C 17.11842727661133 -1.174339413642883 16.98569297790527 -0.4667172431945801 16.72391510009766 0.1828938722610474 C 16.46029281616211 0.8370383381843567 16.08438110351563 1.413460493087769 15.60660457611084 1.896160483360291 C 15.12787055969238 2.379827260971069 14.55300426483154 2.761382818222046 13.89797115325928 3.030238389968872 C 13.24663734436035 3.297571659088135 12.53299331665039 3.433127164840698 11.77688217163086 3.433127164840698 Z" stroke="none" fill="#333"/></g><g transform="translate(464.796 -26.833)" fill="none" stroke-linejoin="round"><path d="M18.375,2.4h-3.1V-1.8H4.373V2.4h-3.1V-6.152A9.019,9.019,0,0,1,1.916-9.6,8.044,8.044,0,0,1,3.7-12.307a8.145,8.145,0,0,1,2.707-1.765A9.012,9.012,0,0,1,9.823-14.7h6.989a1.566,1.566,0,0,1,.608.119,1.537,1.537,0,0,1,.5.334,1.537,1.537,0,0,1,.334.5,1.566,1.566,0,0,1,.119.608Zm-14-7.3h10.9v-6.7H9.823q-.143,0-.6.042a6.119,6.119,0,0,0-1.062.209,6.642,6.642,0,0,0-1.27.513,4.462,4.462,0,0,0-1.229.954,4.887,4.887,0,0,0-.924,1.521,5.981,5.981,0,0,0-.364,2.213ZM39.64,2.4H25.494a1.6,1.6,0,0,1-.62-.119,1.493,1.493,0,0,1-.823-.823,1.6,1.6,0,0,1-.119-.62V-14.7h3.1v14H39.64Zm19.547,0H48a4.622,4.622,0,0,1-.924-.1,4.752,4.752,0,0,1-.978-.316,4.524,4.524,0,0,1-.924-.555A3.762,3.762,0,0,1,44.391.6a4.081,4.081,0,0,1-.543-1.121,4.736,4.736,0,0,1-.2-1.437v-8.4a4.622,4.622,0,0,1,.1-.924,4.751,4.751,0,0,1,.316-.978,4.382,4.382,0,0,1,.561-.924,3.885,3.885,0,0,1,.829-.781,4.1,4.1,0,0,1,1.115-.543A4.678,4.678,0,0,1,48-14.7H59.187v3.1H48a1.26,1.26,0,0,0-.93.322,1.294,1.294,0,0,0-.322.954v8.373a1.25,1.25,0,0,0,.328.924A1.25,1.25,0,0,0,48-.7H59.187Zm21.67,0h-3.1V-1.8h-10.9V2.4h-3.1V-6.152A9.018,9.018,0,0,1,64.4-9.6a8.044,8.044,0,0,1,1.789-2.707,8.145,8.145,0,0,1,2.707-1.765A9.012,9.012,0,0,1,72.3-14.7h6.989a1.565,1.565,0,0,1,.608.119,1.537,1.537,0,0,1,.5.334,1.537,1.537,0,0,1,.334.5,1.565,1.565,0,0,1,.119.608Zm-14-7.3h10.9v-6.7H72.3q-.143,0-.6.042a6.119,6.119,0,0,0-1.062.209,6.642,6.642,0,0,0-1.27.513,4.462,4.462,0,0,0-1.229.954,4.887,4.887,0,0,0-.924,1.521,5.981,5.981,0,0,0-.364,2.213ZM103.5-8.955a6.319,6.319,0,0,1-.262,1.9,5.332,5.332,0,0,1-.71,1.473A5,5,0,0,1,101.5-4.494a6.218,6.218,0,0,1-1.223.745,5.886,5.886,0,0,1-1.288.423,6.194,6.194,0,0,1-1.223.131L104.244,2.4H99.449L92.985-3.194h-2.23V-6.3h7.013a3.588,3.588,0,0,0,1.067-.245,2.651,2.651,0,0,0,.835-.531,2.268,2.268,0,0,0,.543-.805,2.857,2.857,0,0,0,.191-1.079v-1.956a.956.956,0,0,0-.066-.4.479.479,0,0,0-.167-.2.484.484,0,0,0-.215-.078,2,2,0,0,0-.209-.012H89.514v14h-3.1V-13.142a1.566,1.566,0,0,1,.119-.608,1.586,1.586,0,0,1,.328-.5,1.471,1.471,0,0,1,.495-.334,1.6,1.6,0,0,1,.62-.119H99.748a3.736,3.736,0,0,1,1.753.376,3.568,3.568,0,0,1,1.163.942,3.658,3.658,0,0,1,.644,1.223,4.287,4.287,0,0,1,.2,1.229ZM125.354,2.4h-3.1V-1.8h-10.9V2.4h-3.1V-6.152a9.018,9.018,0,0,1,.644-3.447,8.044,8.044,0,0,1,1.789-2.707,8.145,8.145,0,0,1,2.708-1.765A9.012,9.012,0,0,1,116.8-14.7h6.989a1.566,1.566,0,0,1,.608.119,1.537,1.537,0,0,1,.5.334,1.537,1.537,0,0,1,.334.5,1.566,1.566,0,0,1,.119.608Zm-14-7.3h10.9v-6.7H116.8q-.143,0-.6.042a6.119,6.119,0,0,0-1.062.209,6.642,6.642,0,0,0-1.27.513,4.462,4.462,0,0,0-1.229.954,4.886,4.886,0,0,0-.924,1.521,5.981,5.981,0,0,0-.364,2.213Zm34.194-8.874a1.569,1.569,0,0,1,.107.877,1.411,1.411,0,0,1-.382.781L135.037-.7h10.484V2.4H131.542a1.494,1.494,0,0,1-.841-.256,1.583,1.583,0,0,1-.578-.674A1.4,1.4,0,0,1,130,.6a1.55,1.55,0,0,1,.376-.787L140.631-11.6H130.123v-3.1h14a1.494,1.494,0,0,1,.841.256A1.583,1.583,0,0,1,145.545-13.774Z" stroke="none"/><path d="M 145.5209045410156 2.399662017822266 L 145.5209045410156 -0.7014378905296326 L 135.0367584228516 -0.7014378905296326 L 145.2704010009766 -12.11587810516357 C 145.4771423339844 -12.33055782318115 145.6043853759766 -12.59097766876221 145.6520843505859 -12.89711761474609 C 145.6997985839844 -13.20323753356934 145.6640014648438 -13.49545764923096 145.5447235107422 -13.77377796173096 C 145.4174957275391 -14.05207824707031 145.2246551513672 -14.27669811248779 144.9662475585938 -14.44765758514404 C 144.7078247070313 -14.61861801147461 144.4275360107422 -14.70409774780273 144.1253662109375 -14.70409774780273 L 130.1227264404297 -14.70409774780273 L 130.1227264404297 -11.60299777984619 L 140.6306762695313 -11.60299777984619 L 130.3731842041016 -0.1885578632354736 C 130.1744079589844 0.03408213332295418 130.0491485595703 0.2964821457862854 129.9974822998047 0.598642110824585 C 129.94580078125 0.9008021354675293 129.987548828125 1.191022157669067 130.1227264404297 1.469342112541199 C 130.2499542236328 1.747642159461975 130.4427642822266 1.972262144088745 130.7011871337891 2.143222093582153 C 130.9596405029297 2.314182043075562 131.2399139404297 2.399662017822266 131.5420684814453 2.399662017822266 L 145.5209045410156 2.399662017822266 M 125.3536987304688 2.399662017822266 L 125.3536987304688 -13.14161777496338 C 125.3536987304688 -13.3563175201416 125.3139190673828 -13.55907821655273 125.2344207763672 -13.74991798400879 C 125.154899597168 -13.94075775146484 125.0436019897461 -14.10773754119873 124.9004592895508 -14.25085830688477 C 124.7573394775391 -14.39399814605713 124.5903625488281 -14.50531768798828 124.3995208740234 -14.58481788635254 C 124.2086639404297 -14.66433811187744 124.0059204101563 -14.70409774780273 123.7912445068359 -14.70409774780273 L 116.8018035888672 -14.70409774780273 C 115.5693206787109 -14.70409774780273 114.432243347168 -14.49337768554688 113.3906021118164 -14.0719575881958 C 112.3489379882813 -13.65051746368408 111.4464416503906 -13.06209754943848 110.6830978393555 -12.30671787261963 C 109.9197616577148 -11.55131816864014 109.3233795166016 -10.64881801605225 108.8940048217773 -9.599217414855957 C 108.4646224975586 -8.54959774017334 108.2499008178711 -7.400618076324463 108.2499008178711 -6.152217864990234 L 108.2499008178711 2.399662017822266 L 111.3510208129883 2.399662017822266 L 111.3510208129883 -1.798757910728455 L 122.2526016235352 -1.798757910728455 L 122.2526016235352 2.399662017822266 L 125.3536987304688 2.399662017822266 M 116.8018035888672 -11.60299777984619 L 122.2526016235352 -11.60299777984619 L 122.2526016235352 -4.899857997894287 L 111.3510208129883 -4.899857997894287 L 111.3510208129883 -6.152217864990234 C 111.3510208129883 -7.018938064575195 111.472282409668 -7.7564377784729 111.7147979736328 -8.364737510681152 C 111.9573211669922 -8.973037719726563 112.2654418945313 -9.479937553405762 112.6391830444336 -9.885457992553711 C 113.0129013061523 -10.29099750518799 113.4223785400391 -10.60905742645264 113.8676986694336 -10.8396577835083 C 114.3129806518555 -11.07023811340332 114.7363815307617 -11.24119758605957 115.137939453125 -11.35251808166504 C 115.5395050048828 -11.46383762359619 115.8933410644531 -11.53341770172119 116.1994781494141 -11.56125831604004 C 116.5056228637695 -11.58907794952393 116.7063980102539 -11.60299777984619 116.8018035888672 -11.60299777984619 M 104.2442626953125 2.399662017822266 L 97.76772308349609 -3.194237947463989 C 98.14939880371094 -3.194237947463989 98.55690002441406 -3.237977981567383 98.99028015136719 -3.325437784194946 C 99.42362213134766 -3.412917852401733 99.85300445556641 -3.554057836532593 100.2784423828125 -3.748857975006104 C 100.7038192749023 -3.94367790222168 101.1113586425781 -4.192157745361328 101.5009841918945 -4.494318008422852 C 101.8906021118164 -4.796477794647217 102.234504699707 -5.160257816314697 102.5326843261719 -5.585678100585938 C 102.8308792114258 -6.011077880859375 103.0674209594727 -6.502078056335449 103.2423629760742 -7.058697700500488 C 103.4173049926758 -7.615297794342041 103.5047607421875 -8.247457504272461 103.5047607421875 -8.955138206481934 L 103.5047607421875 -10.93507766723633 C 103.5047607421875 -11.31673812866211 103.4391632080078 -11.72623825073242 103.3079605102539 -12.16357803344727 C 103.1767578125 -12.60091781616211 102.9620590209961 -13.00843811035156 102.6638793945313 -13.38613796234131 C 102.3656997680664 -13.76383781433105 101.9780578613281 -14.07791805267334 101.5009841918945 -14.32839775085449 C 101.0238800048828 -14.578857421875 100.4394378662109 -14.70409774780273 99.74765777587891 -14.70409774780273 L 87.97540283203125 -14.70409774780273 C 87.75276184082031 -14.70409774780273 87.5460205078125 -14.66433811187744 87.35517883300781 -14.58481788635254 C 87.16434478759766 -14.50531768798828 86.99935913085938 -14.39399814605713 86.86019897460938 -14.25085830688477 C 86.72106170654297 -14.10773754119873 86.61172485351563 -13.94075775146484 86.53220367431641 -13.74991798400879 C 86.45268249511719 -13.55907821655273 86.41291809082031 -13.3563175201416 86.41291809082031 -13.14161777496338 L 86.41291809082031 2.399662017822266 L 89.51402282714844 2.399662017822266 L 89.51402282714844 -11.60299777984619 L 99.74765777587891 -11.60299777984619 C 99.811279296875 -11.60299777984619 99.880859375 -11.59901809692383 99.95638275146484 -11.59107780456543 C 100.0319213867188 -11.58311748504639 100.1034851074219 -11.55727767944336 100.1710815429688 -11.51353740692139 C 100.2386627197266 -11.46981811523438 100.294319152832 -11.40221786499023 100.3380584716797 -11.31077766418457 C 100.3817977905273 -11.21933746337891 100.4036636352539 -11.08615779876709 100.4036636352539 -10.91121768951416 L 100.4036636352539 -8.955138206481934 C 100.4036636352539 -8.549617767333984 100.3400421142578 -8.189797401428223 100.2128219604492 -7.875717639923096 C 100.0856018066406 -7.561617851257324 99.90470123291016 -7.293257713317871 99.67012023925781 -7.07061767578125 C 99.43556213378906 -6.847977638244629 99.15726470947266 -6.67105770111084 98.83522033691406 -6.539857864379883 C 98.51318359375 -6.408658027648926 98.15736389160156 -6.327157974243164 97.76772308349609 -6.295337677001953 L 90.75446319580078 -6.295337677001953 L 90.75446319580078 -3.194237947463989 L 92.98487854003906 -3.194237947463989 L 99.44947814941406 2.399662017822266 L 104.2442626953125 2.399662017822266 M 80.85671997070313 2.399662017822266 L 80.85671997070313 -13.14161777496338 C 80.85671997070313 -13.3563175201416 80.81696319580078 -13.55907821655273 80.73744201660156 -13.74991798400879 C 80.65792083740234 -13.94075775146484 80.54660034179688 -14.10773754119873 80.40346527099609 -14.25085830688477 C 80.26033782958984 -14.39399814605713 80.09336090087891 -14.50531768798828 79.90251922607422 -14.58481788635254 C 79.71170043945313 -14.66433811187744 79.50891876220703 -14.70409774780273 79.29424285888672 -14.70409774780273 L 72.30484008789063 -14.70409774780273 C 71.07231903076172 -14.70409774780273 69.93526458740234 -14.49337768554688 68.89362335205078 -14.0719575881958 C 67.85195922851563 -13.65051746368408 66.949462890625 -13.06209754943848 66.18611907958984 -12.30671787261963 C 65.42276000976563 -11.55131816864014 64.82640075683594 -10.64881801605225 64.39701843261719 -9.599217414855957 C 63.96762084960938 -8.54959774017334 63.7529411315918 -7.400618076324463 63.7529411315918 -6.152217864990234 L 63.7529411315918 2.399662017822266 L 66.85404205322266 2.399662017822266 L 66.85404205322266 -1.798757910728455 L 77.75559997558594 -1.798757910728455 L 77.75559997558594 2.399662017822266 L 80.85671997070313 2.399662017822266 M 72.30484008789063 -11.60299777984619 L 77.75559997558594 -11.60299777984619 L 77.75559997558594 -4.899857997894287 L 66.85404205322266 -4.899857997894287 L 66.85404205322266 -6.152217864990234 C 66.85404205322266 -7.018938064575195 66.97531890869141 -7.7564377784729 67.21781921386719 -8.364737510681152 C 67.46035766601563 -8.973037719726563 67.76846313476563 -9.479937553405762 68.14218139648438 -9.885457992553711 C 68.51592254638672 -10.29099750518799 68.92542266845703 -10.60905742645264 69.37071990966797 -10.8396577835083 C 69.81600189208984 -11.07023811340332 70.23940277099609 -11.24119758605957 70.64096069335938 -11.35251808166504 C 71.04250335693359 -11.46383762359619 71.3963623046875 -11.53341770172119 71.70249938964844 -11.56125831604004 C 72.00864410400391 -11.58907794952393 72.20941925048828 -11.60299777984619 72.30484008789063 -11.60299777984619 M 59.18667984008789 2.399662017822266 L 59.18667984008789 -0.7014378905296326 L 47.99888229370117 -0.7014378905296326 C 47.60130310058594 -0.7014378905296326 47.29318237304688 -0.8107778429985046 47.07452011108398 -1.029437899589539 C 46.85584259033203 -1.248097896575928 46.74650192260742 -1.556217908859253 46.74650192260742 -1.953797817230225 L 46.74650192260742 -10.32677745819092 C 46.74650192260742 -10.74821758270264 46.85386276245117 -11.06627750396729 47.06854248046875 -11.28095817565918 C 47.28324127197266 -11.4956579208374 47.59336090087891 -11.60299777984619 47.99888229370117 -11.60299777984619 L 59.18667984008789 -11.60299777984619 L 59.18667984008789 -14.70409774780273 L 47.99888229370117 -14.70409774780273 C 47.46612167358398 -14.70409774780273 46.98904037475586 -14.63651752471924 46.56760025024414 -14.50133800506592 C 46.14618301391602 -14.36615753173828 45.77444076538086 -14.18525791168213 45.45240020751953 -13.95863819122314 C 45.1303596496582 -13.73201751708984 44.85404205322266 -13.47161769866943 44.62346267700195 -13.17739772796631 C 44.39286041259766 -12.88319778442383 44.20598220825195 -12.57507801055908 44.06286239624023 -12.25303745269775 C 43.91974258422852 -11.93099784851074 43.81438064575195 -11.60497760772705 43.74680328369141 -11.27499771118164 C 43.67920303344727 -10.94501781463623 43.64540100097656 -10.63687801361084 43.64540100097656 -10.35063743591309 L 43.64540100097656 -1.953797817230225 C 43.64540100097656 -1.421057820320129 43.7130012512207 -0.941977858543396 43.84818267822266 -0.5165578722953796 C 43.98334121704102 -0.09115786850452423 44.16424179077148 0.2825621366500854 44.39086151123047 0.6046021580696106 C 44.61748123168945 0.926642119884491 44.87790298461914 1.20096218585968 45.17210006713867 1.427582144737244 C 45.4663200378418 1.654202103614807 45.77444076538086 1.83908212184906 46.09646224975586 1.982202172279358 C 46.41852188110352 2.125342130661011 46.74452209472656 2.23070216178894 47.07452011108398 2.298282146453857 C 47.40450286865234 2.365862131118774 47.71261978149414 2.399662017822266 47.99888229370117 2.399662017822266 L 59.18667984008789 2.399662017822266 M 39.63973999023438 2.399662017822266 L 39.63973999023438 -0.7014378905296326 L 27.0325813293457 -0.7014378905296326 L 27.0325813293457 -14.70409774780273 L 23.93146133422852 -14.70409774780273 L 23.93146133422852 0.8371821641921997 C 23.93146133422852 1.059822082519531 23.97122192382813 1.266562104225159 24.05074119567871 1.457402110099792 C 24.13026237487793 1.648242115974426 24.23960113525391 1.813242077827454 24.37874221801758 1.95238208770752 C 24.51790237426758 2.09154224395752 24.68288230895996 2.200882196426392 24.87372207641602 2.28038215637207 C 25.06456184387207 2.359902143478394 25.27130126953125 2.399662017822266 25.49394226074219 2.399662017822266 L 39.63973999023438 2.399662017822266 M 18.37524223327637 2.399662017822266 L 18.37524223327637 -13.14161777496338 C 18.37524223327637 -13.3563175201416 18.33550071716309 -13.55907821655273 18.2559814453125 -13.74991798400879 C 18.17646217346191 -13.94075775146484 18.06514167785645 -14.10773754119873 17.92202186584473 -14.25085830688477 C 17.77888107299805 -14.39399814605713 17.61190223693848 -14.50531768798828 17.42106056213379 -14.58481788635254 C 17.23022079467773 -14.66433811187744 17.02746200561523 -14.70409774780273 16.81278228759766 -14.70409774780273 L 9.823361396789551 -14.70409774780273 C 8.59088134765625 -14.70409774780273 7.45380163192749 -14.49337768554688 6.412161350250244 -14.0719575881958 C 5.370501518249512 -13.65051746368408 4.468001365661621 -13.06209754943848 3.70466136932373 -12.30671787261963 C 2.941301584243774 -11.55131816864014 2.344941377639771 -10.64881801605225 1.915561437606812 -9.599217414855957 C 1.486181497573853 -8.54959774017334 1.271481513977051 -7.400618076324463 1.271481513977051 -6.152217864990234 L 1.271481513977051 2.399662017822266 L 4.372581481933594 2.399662017822266 L 4.372581481933594 -1.798757910728455 L 15.27414131164551 -1.798757910728455 L 15.27414131164551 2.399662017822266 L 18.37524223327637 2.399662017822266 M 9.823361396789551 -11.60299777984619 L 15.27414131164551 -11.60299777984619 L 15.27414131164551 -4.899857997894287 L 4.372581481933594 -4.899857997894287 L 4.372581481933594 -6.152217864990234 C 4.372581481933594 -7.018938064575195 4.493841648101807 -7.7564377784729 4.736361503601074 -8.364737510681152 C 4.978901386260986 -8.973037719726563 5.287021636962891 -9.479937553405762 5.660741329193115 -9.885457992553711 C 6.034461498260498 -10.29099750518799 6.443961620330811 -10.60905742645264 6.889261245727539 -10.8396577835083 C 7.334541320800781 -11.07023811340332 7.757961273193359 -11.24119758605957 8.159501075744629 -11.35251808166504 C 8.561061859130859 -11.46383762359619 8.914901733398438 -11.53341770172119 9.221041679382324 -11.56125831604004 C 9.527181625366211 -11.58907794952393 9.727941513061523 -11.60299777984619 9.823361396789551 -11.60299777984619 M 145.5209045410156 3.399662017822266 L 131.5420684814453 3.399662017822266 C 131.041748046875 3.399662017822266 130.5732269287109 3.257542133331299 130.1495056152344 2.977282047271729 C 129.7372131347656 2.704517602920532 129.4239501953125 2.340770959854126 129.2182464599609 1.895970702171326 C 128.9945373535156 1.430278182029724 128.9250640869141 0.9371209144592285 129.0117950439453 0.4300621449947357 C 129.0953216552734 -0.05849786475300789 129.3023834228516 -0.4907178580760956 129.6272430419922 -0.8545578718185425 L 138.3875885009766 -10.60299777984619 L 130.1227264404297 -10.60299777984619 C 129.5704345703125 -10.60299777984619 129.1227264404297 -11.05071830749512 129.1227264404297 -11.60299777984619 L 129.1227264404297 -14.70409774780273 C 129.1227264404297 -15.25637817382813 129.5704345703125 -15.70409774780273 130.1227264404297 -15.70409774780273 L 144.1253662109375 -15.70409774780273 C 144.6257476806641 -15.70409774780273 145.0942840576172 -15.56197834014893 145.5179748535156 -15.28167819976807 C 145.9336395263672 -15.00669765472412 146.2486267089844 -14.63925743103027 146.4542083740234 -14.18953800201416 C 146.4575042724609 -14.182297706604 146.4607238769531 -14.17501831054688 146.4638671875 -14.16769790649414 C 146.6576995849609 -13.71543788909912 146.7169952392578 -13.23611831665039 146.64013671875 -12.74309825897217 C 146.5614471435547 -12.23802185058594 146.3475646972656 -11.79849338531494 146.0043640136719 -11.43652153015137 L 137.2763519287109 -1.701437830924988 L 145.5209045410156 -1.701437830924988 C 146.0731811523438 -1.701437830924988 146.5209045410156 -1.25371789932251 146.5209045410156 -0.7014378905296326 L 146.5209045410156 2.399662017822266 C 146.5209045410156 2.951942205429077 146.0731811523438 3.399662017822266 145.5209045410156 3.399662017822266 Z M 125.3536987304688 3.399662017822266 L 122.2526016235352 3.399662017822266 C 121.700325012207 3.399662017822266 121.2526016235352 2.951942205429077 121.2526016235352 2.399662017822266 L 121.2526016235352 -0.7987578511238098 L 112.3510208129883 -0.7987578511238098 L 112.3510208129883 2.399662017822266 C 112.3510208129883 2.951942205429077 111.9033050537109 3.399662017822266 111.3510208129883 3.399662017822266 L 108.2499008178711 3.399662017822266 C 107.697624206543 3.399662017822266 107.2499008178711 2.951942205429077 107.2499008178711 2.399662017822266 L 107.2499008178711 -6.152217864990234 C 107.2499008178711 -7.525197982788086 107.4916610717773 -8.812317848205566 107.9684448242188 -9.977837562561035 C 108.4470443725586 -11.1477575302124 109.1237182617188 -12.17043781280518 109.9796981811523 -13.01751804351807 C 110.8340377807617 -13.86295795440674 111.8554611206055 -14.52959823608398 113.0155410766602 -14.99895763397217 C 114.1720581054688 -15.46685791015625 115.4459381103516 -15.70409774780273 116.8018035888672 -15.70409774780273 L 123.7912445068359 -15.70409774780273 C 124.1376037597656 -15.70409774780273 124.4716644287109 -15.63809776306152 124.7841186523438 -15.50789833068848 C 125.0952377319336 -15.37829780578613 125.3723220825195 -15.19325828552246 125.6076202392578 -14.95791816711426 C 125.8428039550781 -14.7227783203125 126.0278396606445 -14.44571781158447 126.1575012207031 -14.13453769683838 C 126.2877044677734 -13.82197761535645 126.3536987304688 -13.48793792724609 126.3536987304688 -13.14161777496338 L 126.3536987304688 2.399662017822266 C 126.3536987304688 2.951942205429077 125.9059829711914 3.399662017822266 125.3536987304688 3.399662017822266 Z M 112.3510208129883 -5.899857997894287 L 121.2526016235352 -5.899857997894287 L 121.2526016235352 -10.60299777984619 L 116.8018035888672 -10.60299777984619 C 116.7917251586914 -10.60299777984619 116.6916198730469 -10.60185813903809 116.2899780273438 -10.56535816192627 C 116.0448989868164 -10.54307746887207 115.7471389770508 -10.48369789123535 115.4050827026367 -10.3888578414917 C 115.0719985961914 -10.29651832580566 114.7094650268555 -10.14941787719727 114.3275451660156 -9.951658248901367 C 113.9880447387695 -9.775857925415039 113.6674041748047 -9.525577545166016 113.3745422363281 -9.207798004150391 C 113.085578918457 -8.894257545471191 112.8396987915039 -8.486018180847168 112.6436996459961 -7.994397640228271 C 112.4495010375977 -7.507277965545654 112.3510208129883 -6.887477874755859 112.3510208129883 -6.152217864990234 L 112.3510208129883 -5.899857997894287 Z M 104.2442626953125 3.399662017822266 L 99.44947814941406 3.399662017822266 C 99.20915985107422 3.399662017822266 98.97686004638672 3.313122034072876 98.79514312744141 3.155862092971802 L 92.61228942871094 -2.194237947463989 L 90.75446319580078 -2.194237947463989 C 90.67156982421875 -2.194237947463989 90.59104156494141 -2.204323530197144 90.51402282714844 -2.223333835601807 L 90.51402282714844 2.399662017822266 C 90.51402282714844 2.951942205429077 90.06629943847656 3.399662017822266 89.51402282714844 3.399662017822266 L 86.41291809082031 3.399662017822266 C 85.86064147949219 3.399662017822266 85.41291809082031 2.951942205429077 85.41291809082031 2.399662017822266 L 85.41291809082031 -13.14161777496338 C 85.41291809082031 -13.48801803588867 85.47894287109375 -13.82209777832031 85.60912322998047 -14.13453769683838 C 85.73690032958984 -14.44115829467773 85.91658020019531 -14.71481800079346 86.14320373535156 -14.94791793823242 C 86.37662506103516 -15.18803787231445 86.65502166748047 -15.37643814086914 86.97064208984375 -15.5079174041748 C 87.28300476074219 -15.63807773590088 87.62107849121094 -15.70409774780273 87.97540283203125 -15.70409774780273 L 99.74765777587891 -15.70409774780273 C 100.5997848510742 -15.70409774780273 101.346061706543 -15.539137840271 101.9657821655273 -15.21381759643555 C 102.5656433105469 -14.89887809753418 103.0645599365234 -14.49243831634521 103.4487609863281 -14.00577831268311 C 103.8239593505859 -13.530517578125 104.0988388061523 -13.00739765167236 104.2657852172852 -12.45091819763184 C 104.4243621826172 -11.92233753204346 104.5047607421875 -11.41233825683594 104.5047607421875 -10.93507766723633 L 104.5047607421875 -8.955138206481934 C 104.5047607421875 -8.148918151855469 104.4010009765625 -7.409977912902832 104.1963424682617 -6.758857727050781 C 103.9914398193359 -6.106917858123779 103.7072219848633 -5.519077777862549 103.3515396118164 -5.011677742004395 C 102.9972610473633 -4.506217956542969 102.5808181762695 -4.066277980804443 102.1138229370117 -3.704097747802734 C 101.6654586791992 -3.356397867202759 101.1880416870117 -3.065557956695557 100.6948394775391 -2.839677810668945 C 100.4721298217773 -2.737707376480103 100.2466354370117 -2.647860765457153 100.0196685791016 -2.570571184158325 L 104.8979187011719 1.64286208152771 C 105.2141036987305 1.915962100028992 105.3271789550781 2.35682225227356 105.1814804077148 2.748382091522217 C 105.0358047485352 3.139942169189453 104.6620407104492 3.399662017822266 104.2442626953125 3.399662017822266 Z M 90.51402282714844 -10.60299777984619 L 90.51402282714844 -7.266242027282715 C 90.59104156494141 -7.285252094268799 90.67156982421875 -7.295337677001953 90.75446319580078 -7.295337677001953 L 97.72425842285156 -7.295337677001953 C 97.99536895751953 -7.320640087127686 98.24200439453125 -7.377982616424561 98.45792388916016 -7.465957641601563 C 98.66555786132813 -7.550538063049316 98.83688354492188 -7.658477783203125 98.98168182373047 -7.795917987823486 C 99.11276245117188 -7.920317649841309 99.2122802734375 -8.069217681884766 99.28596496582031 -8.251117706298828 C 99.36405944824219 -8.443938255310059 99.40366363525391 -8.680797576904297 99.40366363525391 -8.955138206481934 L 99.40366363525391 -10.60299777984619 L 90.51402282714844 -10.60299777984619 Z M 80.85671997070313 3.399662017822266 L 77.75559997558594 3.399662017822266 C 77.20332336425781 3.399662017822266 76.75559997558594 2.951942205429077 76.75559997558594 2.399662017822266 L 76.75559997558594 -0.7987578511238098 L 67.85404205322266 -0.7987578511238098 L 67.85404205322266 2.399662017822266 C 67.85404205322266 2.951942205429077 67.40631866455078 3.399662017822266 66.85404205322266 3.399662017822266 L 63.7529411315918 3.399662017822266 C 63.20066070556641 3.399662017822266 62.7529411315918 2.951942205429077 62.7529411315918 2.399662017822266 L 62.7529411315918 -6.152217864990234 C 62.7529411315918 -7.525278091430664 62.99470138549805 -8.812417984008789 63.47148132324219 -9.97785758972168 C 63.95008087158203 -11.14779758453369 64.62676239013672 -12.17047786712646 65.48271942138672 -13.01751804351807 C 66.33705902099609 -13.86295795440674 67.35848236083984 -14.52959823608398 68.51856231689453 -14.99895763397217 C 69.67507934570313 -15.46685791015625 70.94895935058594 -15.70409774780273 72.30484008789063 -15.70409774780273 L 79.29424285888672 -15.70409774780273 C 79.64066314697266 -15.70409774780273 79.97473907470703 -15.63807773590088 80.28717803955078 -15.50787830352783 C 80.59824371337891 -15.37829780578613 80.87532043457031 -15.19325828552246 81.11061859130859 -14.95791816711426 C 81.3458251953125 -14.72273826599121 81.53086090087891 -14.44569778442383 81.6605224609375 -14.13453769683838 C 81.79070281982422 -13.82209777832031 81.85671997070313 -13.48801803588867 81.85671997070313 -13.14161777496338 L 81.85671997070313 2.399662017822266 C 81.85671997070313 2.951942205429077 81.40900421142578 3.399662017822266 80.85671997070313 3.399662017822266 Z M 67.85404205322266 -5.899857997894287 L 76.75559997558594 -5.899857997894287 L 76.75559997558594 -10.60299777984619 L 72.30484008789063 -10.60299777984619 C 72.29476165771484 -10.60299777984619 72.19466400146484 -10.60185813903809 71.79299926757813 -10.56535816192627 C 71.54788208007813 -10.54307746887207 71.25014495849609 -10.48367786407471 70.90811920166016 -10.3888578414917 C 70.57501983642578 -10.29651832580566 70.21247863769531 -10.14941787719727 69.83055877685547 -9.951658248901367 C 69.49104309082031 -9.775837898254395 69.17040252685547 -9.525557518005371 68.87751770019531 -9.207777976989746 C 68.588623046875 -8.894277572631836 68.34274291992188 -8.486038208007813 68.14669799804688 -7.994378089904785 C 67.95252227783203 -7.50725793838501 67.85404205322266 -6.88743782043457 67.85404205322266 -6.152217864990234 L 67.85404205322266 -5.899857997894287 Z M 59.18667984008789 3.399662017822266 L 47.99888229370117 3.399662017822266 C 47.6467399597168 3.399662017822266 47.26824188232422 3.358702182769775 46.87388229370117 3.277942180633545 C 46.47492218017578 3.196242094039917 46.07670211791992 3.067742109298706 45.69032287597656 2.896002054214478 C 45.29730224609375 2.721342086791992 44.91764068603516 2.49382209777832 44.56188201904297 2.21982216835022 C 44.18924331665039 1.932762145996094 43.85654067993164 1.582962155342102 43.57306289672852 1.180102109909058 C 43.28868103027344 0.775982141494751 43.06060028076172 0.3070221245288849 42.89512252807617 -0.2137578576803207 C 42.72941970825195 -0.7352378368377686 42.64540100097656 -1.320677876472473 42.64540100097656 -1.953797817230225 L 42.64540100097656 -10.35063743591309 C 42.64540100097656 -10.70283794403076 42.68636322021484 -11.08135795593262 42.76714324951172 -11.47569751739502 C 42.84884262084961 -11.87459754943848 42.97734069824219 -12.27279758453369 43.14904022216797 -12.65915775299072 C 43.32485961914063 -13.0547981262207 43.5561408996582 -13.43671798706055 43.83642196655273 -13.79429817199707 C 44.126220703125 -14.16407775878906 44.47630310058594 -14.49453830718994 44.87689971923828 -14.77643775939941 C 45.28022003173828 -15.06025791168213 45.74629974365234 -15.28807830810547 46.26216125488281 -15.45355796813965 C 46.78048324584961 -15.619797706604 47.36478042602539 -15.70409774780273 47.99888229370117 -15.70409774780273 L 59.18667984008789 -15.70409774780273 C 59.73896026611328 -15.70409774780273 60.18667984008789 -15.25637817382813 60.18667984008789 -14.70409774780273 L 60.18667984008789 -11.60299777984619 C 60.18667984008789 -11.05071830749512 59.73896026611328 -10.60299777984619 59.18667984008789 -10.60299777984619 L 47.99888229370117 -10.60299777984619 C 47.86397171020508 -10.60299777984619 47.79982757568359 -10.58220863342285 47.77869415283203 -10.57339286804199 C 47.76668548583984 -10.54423809051514 47.74650192260742 -10.46615695953369 47.74650192260742 -10.32677745819092 L 47.74650192260742 -1.953797817230225 C 47.74650192260742 -1.803337812423706 47.77582168579102 -1.742357850074768 47.78160095214844 -1.736577868461609 C 47.78740310668945 -1.730777859687805 47.8484001159668 -1.701437830924988 47.99888229370117 -1.701437830924988 L 59.18667984008789 -1.701437830924988 C 59.73896026611328 -1.701437830924988 60.18667984008789 -1.25371789932251 60.18667984008789 -0.7014378905296326 L 60.18667984008789 2.399662017822266 C 60.18667984008789 2.951942205429077 59.73896026611328 3.399662017822266 59.18667984008789 3.399662017822266 Z M 39.63973999023438 3.399662017822266 L 25.49394226074219 3.399662017822266 C 25.13962173461914 3.399662017822266 24.80154228210449 3.333642244338989 24.48910140991211 3.20346212387085 C 24.17806053161621 3.073882102966309 23.90300178527832 2.890862226486206 23.6716423034668 2.65948224067688 C 23.44032096862793 2.428182125091553 23.25730133056641 2.153142213821411 23.12766075134277 1.842022180557251 C 22.99748229980469 1.529582142829895 22.93146133422852 1.191502094268799 22.93146133422852 0.8371821641921997 L 22.93146133422852 -14.70409774780273 C 22.93146133422852 -15.25637817382813 23.37918090820313 -15.70409774780273 23.93146133422852 -15.70409774780273 L 27.0325813293457 -15.70409774780273 C 27.58486175537109 -15.70409774780273 28.0325813293457 -15.25637817382813 28.0325813293457 -14.70409774780273 L 28.0325813293457 -1.701437830924988 L 39.63973999023438 -1.701437830924988 C 40.19202041625977 -1.701437830924988 40.63973999023438 -1.25371789932251 40.63973999023438 -0.7014378905296326 L 40.63973999023438 2.399662017822266 C 40.63973999023438 2.951942205429077 40.19202041625977 3.399662017822266 39.63973999023438 3.399662017822266 Z M 18.37524223327637 3.399662017822266 L 15.27414131164551 3.399662017822266 C 14.72186183929443 3.399662017822266 14.27414131164551 2.951942205429077 14.27414131164551 2.399662017822266 L 14.27414131164551 -0.7987578511238098 L 5.372581481933594 -0.7987578511238098 L 5.372581481933594 2.399662017822266 C 5.372581481933594 2.951942205429077 4.924861431121826 3.399662017822266 4.372581481933594 3.399662017822266 L 1.271481513977051 3.399662017822266 C 0.7192015051841736 3.399662017822266 0.2714814841747284 2.951942205429077 0.2714814841747284 2.399662017822266 L 0.2714814841747284 -6.152217864990234 C 0.2714814841747284 -7.52521800994873 0.5132215023040771 -8.812357902526855 0.9900014996528625 -9.977837562561035 C 1.468621492385864 -11.14779758453369 2.145301580429077 -12.17047786712646 3.001261472702026 -13.01751804351807 C 3.85560154914856 -13.86295795440674 4.877021312713623 -14.52959823608398 6.037101268768311 -14.99895763397217 C 7.193621635437012 -15.46685791015625 8.467501640319824 -15.70409774780273 9.823361396789551 -15.70409774780273 L 16.81278228759766 -15.70409774780273 C 17.15918159484863 -15.70409774780273 17.49324226379395 -15.63807773590088 17.8056812286377 -15.50789833068848 C 18.11674118041992 -15.37831783294678 18.39382171630859 -15.19327831268311 18.62912178039551 -14.95795822143555 C 18.86440086364746 -14.72269821166992 19.0494213104248 -14.44565773010254 19.17906188964844 -14.13453769683838 C 19.30924224853516 -13.82211780548096 19.37524223327637 -13.48805809020996 19.37524223327637 -13.14161777496338 L 19.37524223327637 2.399662017822266 C 19.37524223327637 2.951942205429077 18.92752075195313 3.399662017822266 18.37524223327637 3.399662017822266 Z M 5.372581481933594 -5.899857997894287 L 14.27414131164551 -5.899857997894287 L 14.27414131164551 -10.60299777984619 L 9.823361396789551 -10.60299777984619 C 9.813281059265137 -10.60299777984619 9.713201522827148 -10.60185813903809 9.311541557312012 -10.56535816192627 C 9.066461563110352 -10.54307746887207 8.768701553344727 -10.48369789123535 8.426641464233398 -10.3888578414917 C 8.093541145324707 -10.29651832580566 7.731001377105713 -10.14941787719727 7.349101543426514 -9.951658248901367 C 7.009581565856934 -9.775837898254395 6.688941478729248 -9.525557518005371 6.396101474761963 -9.207798004150391 C 6.107161521911621 -8.894257545471191 5.861281394958496 -8.486018180847168 5.665241241455078 -7.994378089904785 C 5.471061706542969 -7.507277965545654 5.372581481933594 -6.887477874755859 5.372581481933594 -6.152217864990234 L 5.372581481933594 -5.899857997894287 Z" stroke="none" fill="#333"/></g></g><path d="M6.318-9.81A2.787,2.787,0,0,1,8.856-8.721a5.535,5.535,0,0,1,.7,3.015V-1.1a1.079,1.079,0,0,1-.306.783A1.033,1.033,0,0,1,8.478,0,1.033,1.033,0,0,1,7.7-.315,1.079,1.079,0,0,1,7.4-1.1V-5.706a2.593,2.593,0,0,0-.414-1.557A1.645,1.645,0,0,0,5.562-7.83a2.195,2.195,0,0,0-1.638.6A2.078,2.078,0,0,0,3.33-5.706V-1.1a1.079,1.079,0,0,1-.306.783A1.033,1.033,0,0,1,2.25,0a1.033,1.033,0,0,1-.774-.315A1.079,1.079,0,0,1,1.17-1.1V-8.532a1.079,1.079,0,0,1,.306-.783A1.033,1.033,0,0,1,2.25-9.63a1.033,1.033,0,0,1,.774.315,1.079,1.079,0,0,1,.306.783v.306A4.347,4.347,0,0,1,4.6-9.342,3.289,3.289,0,0,1,6.318-9.81ZM13.932-1.1a1.079,1.079,0,0,1-.306.783A1.033,1.033,0,0,1,12.852,0a1.033,1.033,0,0,1-.774-.315,1.079,1.079,0,0,1-.306-.783V-8.532a1.079,1.079,0,0,1,.306-.783,1.033,1.033,0,0,1,.774-.315,1.033,1.033,0,0,1,.774.315,1.079,1.079,0,0,1,.306.783Zm-1.1-9.7a1.43,1.43,0,0,1-.864-.2.846.846,0,0,1-.252-.7v-.342a.816.816,0,0,1,.27-.7,1.48,1.48,0,0,1,.864-.2,1.469,1.469,0,0,1,.882.2.846.846,0,0,1,.252.7v.342a.827.827,0,0,1-.261.711A1.572,1.572,0,0,1,12.834-10.8Zm10.71,1.188a.994.994,0,0,1,.72.279.926.926,0,0,1,.288.693,1.4,1.4,0,0,1-.144.54L21.042-.684a1.12,1.12,0,0,1-.369.486,1,1,0,0,1-.549.2l-.162.018A.947.947,0,0,1,19.4-.171a1.238,1.238,0,0,1-.405-.513L15.642-8.1a1.427,1.427,0,0,1-.126-.576.9.9,0,0,1,.306-.657,1.043,1.043,0,0,1,.756-.3,1.166,1.166,0,0,1,.63.18,1.11,1.11,0,0,1,.432.5l2.484,5.688,2.466-5.67a1.187,1.187,0,0,1,.4-.522A.848.848,0,0,1,23.544-9.612ZM34.812-5.04a.924.924,0,0,1-.342.7,1.145,1.145,0,0,1-.756.27h-5.94a2.714,2.714,0,0,0,.99,1.665,2.768,2.768,0,0,0,1.746.6,3.87,3.87,0,0,0,1.152-.135,3,3,0,0,0,.657-.288q.243-.153.333-.207a1.373,1.373,0,0,1,.612-.162.884.884,0,0,1,.648.27.863.863,0,0,1,.27.63,1.123,1.123,0,0,1-.5.882,4.3,4.3,0,0,1-1.35.7,5.274,5.274,0,0,1-1.71.288,5.309,5.309,0,0,1-2.637-.63,4.4,4.4,0,0,1-1.737-1.737,5.065,5.065,0,0,1-.612-2.493A5.519,5.519,0,0,1,26.28-7.4a4.6,4.6,0,0,1,1.71-1.791,4.42,4.42,0,0,1,2.268-.621,4.2,4.2,0,0,1,2.241.648,4.844,4.844,0,0,1,1.683,1.746A4.694,4.694,0,0,1,34.812-5.04ZM30.258-7.83a2.234,2.234,0,0,0-2.466,1.962h4.716v-.126a1.861,1.861,0,0,0-.738-1.3A2.336,2.336,0,0,0,30.258-7.83ZM41.616-9.81a1.377,1.377,0,0,1,.909.306.912.912,0,0,1,.369.72,1.115,1.115,0,0,1-.288.837.95.95,0,0,1-.684.279,1.8,1.8,0,0,1-.612-.126q-.054-.018-.243-.072a1.468,1.468,0,0,0-.4-.054,1.6,1.6,0,0,0-.9.288,2.1,2.1,0,0,0-.711.873,3.214,3.214,0,0,0-.279,1.395V-1.1a1.079,1.079,0,0,1-.306.783A1.033,1.033,0,0,1,37.692,0a1.033,1.033,0,0,1-.774-.315,1.079,1.079,0,0,1-.306-.783V-8.532a1.079,1.079,0,0,1,.306-.783,1.033,1.033,0,0,1,.774-.315,1.033,1.033,0,0,1,.774.315,1.079,1.079,0,0,1,.306.783V-8.3A2.727,2.727,0,0,1,39.96-9.423,3.652,3.652,0,0,1,41.616-9.81Zm2.25,8.316a.875.875,0,0,1-.162-.54.945.945,0,0,1,.468-.792.952.952,0,0,1,.522-.162,1.015,1.015,0,0,1,.72.342,3.8,3.8,0,0,0,1.125.828,3.354,3.354,0,0,0,1.413.27q1.4-.054,1.4-1.062a.861.861,0,0,0-.477-.792,6.732,6.732,0,0,0-1.485-.54,12.872,12.872,0,0,1-1.7-.576,3.01,3.01,0,0,1-1.134-.873,2.418,2.418,0,0,1-.477-1.575,2.383,2.383,0,0,1,.495-1.5,3.258,3.258,0,0,1,1.3-.99,4.192,4.192,0,0,1,1.7-.351,5.228,5.228,0,0,1,1.836.342A3.193,3.193,0,0,1,50.85-8.46a1,1,0,0,1,.234.648.836.836,0,0,1-.342.684.907.907,0,0,1-.576.2.877.877,0,0,1-.648-.252,2.286,2.286,0,0,0-.837-.63,2.767,2.767,0,0,0-1.161-.234q-1.368,0-1.368.99a.847.847,0,0,0,.252.639,1.722,1.722,0,0,0,.639.378q.387.135,1.089.333a11.9,11.9,0,0,1,1.62.558,2.78,2.78,0,0,1,1.1.882A2.527,2.527,0,0,1,51.3-2.7a2.4,2.4,0,0,1-.522,1.539,3.3,3.3,0,0,1-1.341,1A4.328,4.328,0,0,1,47.754.18a6.1,6.1,0,0,1-2.214-.4A3.679,3.679,0,0,1,43.866-1.494ZM61.74-5.04a.924.924,0,0,1-.342.7,1.145,1.145,0,0,1-.756.27H54.7a2.714,2.714,0,0,0,.99,1.665,2.768,2.768,0,0,0,1.746.6,3.87,3.87,0,0,0,1.152-.135,3,3,0,0,0,.657-.288q.243-.153.333-.207a1.373,1.373,0,0,1,.612-.162.884.884,0,0,1,.648.27.863.863,0,0,1,.27.63,1.123,1.123,0,0,1-.5.882,4.3,4.3,0,0,1-1.35.7,5.274,5.274,0,0,1-1.71.288,5.309,5.309,0,0,1-2.637-.63,4.4,4.4,0,0,1-1.737-1.737A5.065,5.065,0,0,1,52.56-4.68,5.519,5.519,0,0,1,53.208-7.4a4.6,4.6,0,0,1,1.71-1.791,4.42,4.42,0,0,1,2.268-.621,4.2,4.2,0,0,1,2.241.648A4.844,4.844,0,0,1,61.11-7.416,4.694,4.694,0,0,1,61.74-5.04ZM57.186-7.83A2.234,2.234,0,0,0,54.72-5.868h4.716v-.126a1.861,1.861,0,0,0-.738-1.3A2.336,2.336,0,0,0,57.186-7.83Z" transform="translate(92 122)" fill="#333"/><g transform="translate(69.562 105.284)"><g transform="translate(0)"><path d="M291.344,1.082a1.056,1.056,0,0,0-.3-.78,1.027,1.027,0,0,0-.759-.3,1.06,1.06,0,0,0-.768.3,1.034,1.034,0,0,0-.312.78V6q1.078-.322,2.141-.683Z" transform="translate(-271.985 0)" fill="#333"/><path d="M25.242,4.283a.742.742,0,0,0-.329-.27,2.019,2.019,0,0,0-.614-.152,6.181,6.181,0,0,0-1.139,0,17.187,17.187,0,0,0-2.194.323c.736-.014,1.472-.018,2.2.027a7.07,7.07,0,0,1,1.057.137,1.535,1.535,0,0,1,.437.159c.052.033.089.071.082.081s-.014,0-.015.021a1.029,1.029,0,0,1-.258.28,3.635,3.635,0,0,1-.41.286,9.34,9.34,0,0,1-.937.491c-.65.3-1.316.577-2,.827-1.362.5-2.74.964-4.137,1.374s-2.794.822-4.209,1.176c-1.408.378-2.826.715-4.248,1.021l-.414.091V1.082a1.055,1.055,0,0,0-.3-.78A1.143,1.143,0,0,0,6.263.3a1.034,1.034,0,0,0-.312.78v9.5q-.852.152-1.7.283c-.715.105-1.432.18-2.14.216a5.779,5.779,0,0,1-1.026-.03,1.2,1.2,0,0,1-.392-.106c-.043-.023-.04-.027-.04-.012s-.009,0,.006-.048a2.159,2.159,0,0,1,.656-.674c.284-.213.589-.407.9-.6.623-.376,1.271-.726,1.924-1.067A20.179,20.179,0,0,0,2.049,9.3a9.047,9.047,0,0,0-1.008.5A2.559,2.559,0,0,0,.1,10.6a.668.668,0,0,0-.08.482A.7.7,0,0,0,.3,11.5a1.779,1.779,0,0,0,.637.266A6.507,6.507,0,0,0,2.1,11.91a19.181,19.181,0,0,0,2.252-.063c.557-.046,1.109-.116,1.661-.186a5.161,5.161,0,0,0,.8,2.121A5.784,5.784,0,0,0,9.225,15.83a8.088,8.088,0,0,0,3.523.739,7.673,7.673,0,0,0,3.42-.739,5.677,5.677,0,0,0,2.35-2.058,5.433,5.433,0,0,0,.841-2.983V8.283c.72-.274,1.433-.566,2.139-.881A22.342,22.342,0,0,0,23.5,6.4a10.265,10.265,0,0,0,.961-.624,4.285,4.285,0,0,0,.458-.39,1.414,1.414,0,0,0,.394-.593A.626.626,0,0,0,25.242,4.283Zm-8.024,6.506a3.523,3.523,0,0,1-.571,1.975,3.836,3.836,0,0,1-1.591,1.362,5.271,5.271,0,0,1-2.307.488,5.632,5.632,0,0,1-2.4-.488,3.936,3.936,0,0,1-1.642-1.362,3.36,3.36,0,0,1-.553-1.425h0c1.663-.291,3.311-.657,4.943-1.07,1.384-.37,2.761-.772,4.122-1.224v1.744Z" transform="translate(0.001 0)" fill="#333"/></g><circle cx="1.066" cy="1.066" r="1.066" transform="translate(0 2.599)" fill="#333"/></g></g></g></svg>