<?xml version="1.0" encoding="utf-8"?>
<!-- Generator: Adobe Illustrator 22.1.0, SVG Export Plug-In . SVG Version: 6.00 Build 0)  -->
<svg version="1.1" id="Layer_1" xmlns="http://www.w3.org/2000/svg" xmlns:xlink="http://www.w3.org/1999/xlink" x="0px" y="0px"
	 width="201px" height="41px" viewBox="0 0 201 41" enable-background="new 0 0 201 41" xml:space="preserve">
<path id="Combined-Shape" fill="#58595B" d="M182.2,15.2c1,0,1.8,0.8,1.8,1.8c0,0.5-0.2,0.9-0.4,1.2c-0.1,0.1-0.2,0.3-0.2,0.5
	c0,0,0,0.1,0,0.1c0,0.2,0.1,0.4,0.2,0.6c0,0.1,0.1,0.1,0.2,0.2c0,0,0,0,0,0c0.1,0.1,0.2,0.2,0.4,0.3c0.3,0.2,0.5,0.5,0.7,0.8
	c0.1-0.1,0.2-0.3,0.2-0.5c0-0.1,0-0.3-0.1-0.4c0-0.1-0.1-0.1-0.1-0.2l0,0l0,0c0,0,0,0,0,0c-0.3-0.3-0.4-0.7-0.4-1.2
	c0-0.2,0-0.3,0.1-0.5c0.2-0.8,0.9-1.4,1.8-1.4c0.8,0,1.6,0.6,1.8,1.4c0,0.1,0.1,0.3,0.1,0.4c0,0.5-0.2,0.9-0.4,1.2l0,0h0
	c-0.2,0.2-0.2,0.4-0.2,0.6c0,0.3,0.2,0.6,0.4,0.8c0,0,0,0,0,0c0.5,0.3,0.9,0.7,1.1,1.3c0.2,0.4,0.3,0.8,0.3,1.3l0,0v3.5
	c0,0.3-0.1,0.5-0.1,0.8c-0.3,0.9-1,1.6-1.9,1.9c-0.1,0-0.1,0-0.2,0.1c-0.2,0-0.5,0.1-0.7,0.1c-0.3,0-0.6-0.1-0.9-0.1l0,0h0v0.1
	c0,0,0,0,0,0.1c0,0,0,0,0,0.1l0,0v0.1c0,0.3-0.1,0.5-0.1,0.8c-0.3,0.9-1,1.7-1.9,1.9c-0.1,0-0.1,0-0.2,0.1c-0.2,0.1-0.5,0.1-0.7,0.1
	c-1.2,0-2.2-0.7-2.7-1.7c-0.2-0.4-0.3-0.9-0.3-1.4l0,0v-0.1c-0.1,0-0.1,0-0.2,0.1c0,0,0,0,0,0c-0.2,0-0.4,0.1-0.7,0.1
	c-1.6,0-3-1.3-3-3l0,0v-3.3c0-1.1,0.6-2,1.4-2.6c0,0,0,0,0,0l0,0c0.2-0.2,0.4-0.4,0.4-0.8c0-0.2-0.1-0.4-0.2-0.6c0,0,0,0,0,0
	c-0.3-0.3-0.4-0.7-0.4-1.2c0-0.2,0-0.3,0.1-0.4c0.2-0.8,0.9-1.4,1.8-1.4c0.8,0,1.5,0.6,1.8,1.4c0,0.2,0.1,0.3,0.1,0.5
	c0,0.5-0.2,0.9-0.5,1.2c-0.1,0.1-0.1,0.1-0.1,0.2c-0.1,0.1-0.1,0.3-0.1,0.4c0,0.2,0.1,0.4,0.2,0.5c0.2-0.3,0.4-0.6,0.7-0.8
	c0.1-0.1,0.2-0.2,0.3-0.3c0,0,0,0,0,0c0.1,0,0.1-0.1,0.2-0.2c0.1-0.2,0.2-0.4,0.2-0.6c0-0.1,0-0.1,0-0.1c0-0.2-0.1-0.3-0.2-0.5l0,0
	v0c0,0,0,0,0,0c-0.3-0.3-0.4-0.7-0.4-1.2C180.4,16.1,181.2,15.2,182.2,15.2z M182.2,21.3c-0.5,0-0.9,0.4-0.9,0.9l0,0V30
	c0,0.5,0.4,0.9,0.9,0.9c0.5,0,0.9-0.4,0.9-0.8l0,0v-7.8C183.1,21.7,182.7,21.3,182.2,21.3z M186.1,22.7c-0.5,0-0.9,0.4-0.9,0.9l0,0
	v3.3c0,0.5,0.4,0.9,0.9,0.9c0.5,0,0.9-0.4,0.9-0.9l0,0v-3.4C187,23.1,186.6,22.7,186.1,22.7z M178.3,22.7c-0.5,0-0.9,0.4-0.9,0.9
	l0,0v3.3c0,0.5,0.4,0.9,0.9,0.9s0.9-0.4,0.9-0.9l0,0v-3.4C179.2,23.1,178.8,22.7,178.3,22.7z M89.5,17.4c2,0,3.2,1.7,3.2,3.8
	c0,2.2-1.2,3.8-3.2,3.8c-1,0-1.8-0.4-2.5-1.4l0,0v3.6h-1.2v-9.8H87v1.2C87.7,17.8,88.6,17.4,89.5,17.4z M24,17.1
	c1.3,0,2.3,0.6,2.9,1.6l-1,0.7c-0.4-0.7-1.1-1.1-1.9-1.1c-1.4,0-2.2,1.1-2.2,2.8c0,1.7,0.8,2.8,2.2,2.8c1.1,0,2-0.7,2.1-1.8h-2v-1.2
	h3.2c0,0.2,0.1,0.4,0.1,0.6c0,2-1.2,3.6-3.4,3.6c-2.1,0-3.5-1.7-3.5-4C20.5,18.7,21.9,17.1,24,17.1z M61.2,17.1c2.2,0,3.5,1.7,3.5,4
	c0,2.2-1.4,4-3.5,4c-2.2,0-3.5-1.7-3.5-4C57.7,18.8,59,17.1,61.2,17.1z M79,17.6V22c0,0.9,0.2,1.9,1.6,1.9c1.2,0,2.1-0.9,2.1-2.3
	l0,0v-4.1h1.2v7.3h-1.2v-1.2c-0.6,0.9-1.4,1.4-2.4,1.4c-1.5,0-2.5-1-2.5-2.8l0,0v-4.7H79z M159.6,17.2c2.3,0,3.8,1.6,3.8,3.9
	c0,2.3-1.5,3.9-3.8,3.9s-3.8-1.6-3.8-3.9C155.8,18.8,157.3,17.2,159.6,17.2z M126.1,14.8v3.4c0.6-0.7,1.3-1,2.2-1
	c2,0,3.3,1.7,3.3,3.9c0,2.2-1.3,3.9-3.3,3.9c-0.9,0-1.6-0.3-2.2-1l0,0v0.9H124V14.8H126.1z M151,14.8v10.1H149V24
	c-0.6,0.7-1.3,1-2.2,1c-2,0-3.3-1.7-3.3-3.9c0-2.2,1.3-3.9,3.3-3.9c0.9,0,1.6,0.3,2.2,1l0,0v-3.4H151z M117.9,17.4v4.5
	c0,0.6,0.2,1.3,1.1,1.3c0.8,0,1.4-0.5,1.4-1.5l0,0v-4.3h2.1v7.5h-2.1V24c-0.6,0.6-1.3,1-2.2,1c-1.6,0-2.4-1.2-2.4-2.7l0,0v-5H117.9z
	 M110.8,15.3c1.4,0,2.9,0.5,3.8,1.9l0,0l-1.6,1c-0.5-0.8-1.4-1.1-2.2-1.1c-0.8,0-1.3,0.3-1.3,0.9c0,0.7,0.9,0.8,1.8,1
	c1.9,0.4,3.5,0.9,3.5,2.9c0,1.8-1.4,3.1-3.8,3.1c-2,0-3.5-0.9-4.2-2.3l0,0l1.7-0.9c0.6,1.1,1.6,1.5,2.6,1.5c0.9,0,1.6-0.4,1.6-1
	c0-0.8-0.9-0.9-2-1.1c-1.8-0.3-3.4-0.9-3.4-2.9C107.3,16.4,108.7,15.3,110.8,15.3z M97.3,17.4c2.1,0,3.3,1.6,3.3,3.6
	c0,0.2,0,0.4,0,0.5l0,0h-5.5c0.1,1.5,1,2.4,2.4,2.4c0.8,0,1.5-0.3,2.1-1l0,0l0.8,0.8c-0.7,0.8-1.6,1.3-2.9,1.3
	c-2.3,0-3.6-1.6-3.6-3.8C93.8,19.1,95.1,17.4,97.3,17.4z M72.9,15.3c1.4,0,2.6,0.6,3.4,1.7l0,0l-1,0.7c-0.6-0.8-1.4-1.2-2.5-1.2
	c-0.9,0-1.8,0.4-1.8,1.4c0,1,0.9,1.2,2.1,1.5c1.7,0.4,3.3,0.9,3.3,2.8c0,1.7-1.3,2.9-3.4,2.9c-1.7,0-3-0.8-3.7-1.9l0,0l1-0.7
	c0.6,1,1.6,1.5,2.7,1.5c1.2,0,2-0.6,2-1.6c0-1.1-1-1.3-2.4-1.6c-1.5-0.3-3-0.9-3-2.6C69.7,16.3,71,15.3,72.9,15.3z M135.6,17.2
	c1.6,0,2.8,0.7,3.4,1.4l0,0l-1.2,1.1c-0.5-0.5-1.2-0.9-2.2-0.9c-0.6,0-1.1,0.2-1.1,0.6c0,0.5,0.7,0.5,1.6,0.7c1.7,0.3,3,0.8,3,2.4
	c0,1.6-1.3,2.6-3.3,2.6c-1.6,0-2.9-0.6-3.7-1.8l0,0l1.4-1c0.5,0.8,1.5,1.1,2.4,1.1c0.7,0,1.2-0.2,1.2-0.6c0-0.5-0.7-0.6-1.5-0.8
	c-1.7-0.2-3-0.8-3-2.4C132.6,18,133.9,17.2,135.6,17.2z M30.9,17.2v7.7h-1.2v-7.7H30.9z M44.4,17.2l2.8,7.7h-1.4l-0.7-2h-3l-0.7,2
	h-1.4l2.8-7.7H44.4z M18,17.2v7.7h-1.2v-7.7H18z M9.4,17.2l2,6.1l2-6.1h1.3L12,24.9h-1.3L8,17.2H9.4z M35,17.2v6.4h3.8v1.2h-5.1
	v-7.7H35z M52.1,17.2c2.3,0,3.5,1.6,3.5,3.8c0,2.2-1.2,3.8-3.5,3.8h-2.8v-7.7H52.1z M142.3,17.4v7.5h-2.1v-7.5H142.3z M105.3,17.4
	c0.4,0,0.8,0.1,1,0.3l0,0l-0.4,1.2c-0.2-0.1-0.5-0.2-0.8-0.2c-0.9,0-1.8,0.9-1.8,2.4l0,0v3.8h-1.2v-7.3h1.2v1.2
	C103.7,18,104.4,17.4,105.3,17.4z M154.7,17.4v7.5h-2.1v-7.5H154.7z M89.3,18.5c-1.5,0-2.3,1.2-2.3,2.7s0.8,2.7,2.3,2.7
	c1.5,0,2.2-1.2,2.2-2.7S90.8,18.5,89.3,18.5z M61.2,18.3c-1.4,0-2.2,1.2-2.2,2.7c0,1.6,0.8,2.7,2.2,2.7c1.4,0,2.2-1.2,2.2-2.7
	C63.4,19.5,62.6,18.3,61.2,18.3z M52.1,18.4h-1.6v5.2h1.6c1.5,0,2.2-1,2.2-2.6C54.4,19.5,53.6,18.4,52.1,18.4z M159.6,19
	c-1.1,0-1.6,0.9-1.6,2.1s0.6,2.1,1.6,2.1c1.1,0,1.6-0.9,1.6-2.1S160.7,19,159.6,19z M127.8,19c-1.1,0-1.7,1-1.7,2.1
	c0,1.1,0.6,2.1,1.7,2.1c1.1,0,1.6-0.9,1.6-2.1C129.4,20,128.9,19,127.8,19z M147.3,19c-1.1,0-1.6,1-1.6,2.1c0,1.1,0.5,2.1,1.6,2.1
	c1.1,0,1.7-0.9,1.7-2.1C149,20,148.4,19,147.3,19z M43.7,18.4l-1.2,3.4h2.3L43.7,18.4z M97.2,18.4c-1.2,0-2.1,0.9-2.2,2.1l0,0h4.3
	C99.3,19.2,98.3,18.4,97.2,18.4z M182.2,8c0.5,0,1,0.2,1.5,0.4c0.2,0.1,0.4,0.3,0.5,0.4l0,0l1.2,1.2l0.1,0.1l2.9,2.9l0.2,0.2
	l4.1,4.2l0.1,0.1l0,0c0.2,0.2,0.3,0.5,0.3,0.7c0,0.3-0.1,0.5-0.3,0.7l0,0l-0.1,0.1c-0.2,0.2-0.4,0.3-0.7,0.3c-0.3,0-0.6-0.1-0.8-0.3
	l0,0h0l-2.7-2.8l-0.1-0.1l-3.7-3.8l-1.1-1.1l0,0h0c0,0,0,0-0.1-0.1l0,0l0,0c-0.3-0.3-0.8-0.5-1.3-0.5c-0.5,0-0.9,0.2-1.2,0.5
	c0,0,0,0,0,0l0,0c0,0,0,0-0.1,0.1l0,0l0,0l-0.1,0.1l-1,1l-3.7,3.8l-0.1,0.1l-2.7,2.8c-0.2,0.2-0.5,0.3-0.8,0.3
	c-0.3,0-0.5-0.1-0.7-0.3l0,0v0l-0.1-0.1c-0.2-0.2-0.3-0.4-0.3-0.7c0-0.3,0.1-0.5,0.3-0.7l0,0l0.1-0.1h0l4.1-4.2l0.2-0.2l2.9-2.9
	l0.1-0.1l1.1-1.1l0.2-0.2c0.1-0.1,0.3-0.2,0.4-0.3C181.2,8.2,181.7,8,182.2,8z M154.7,14.8v1.6h-2.1v-1.6H154.7z M142.3,14.8v1.6
	h-2.1v-1.6H142.3z"/>
</svg>
