<?xml version="1.0" encoding="utf-8"?>
<!-- Generator: Adobe Illustrator 22.1.0, SVG Export Plug-In . SVG Version: 6.00 Build 0)  -->
<svg version="1.1" id="Layer_1" xmlns="http://www.w3.org/2000/svg" xmlns:xlink="http://www.w3.org/1999/xlink" x="0px" y="0px"
	 width="35px" height="178px" viewBox="0 0 35 178" enable-background="new 0 0 35 178" xml:space="preserve">
<path id="Combined-Shape" fill="#58595B" d="M14.2,164.2l6.1,2.3v1.1l-6.1,2.3v-1.2l4.9-1.7l-4.9-1.8V164.2z M20.3,161.4v1.1h-6.1
	v-1.1H20.3z M17.6,153.4c1.6,0,2.9,1,2.9,2.9c0,1.8-1.3,3-3.2,3c-1.9,0-3.2-1.2-3.2-3c0-1.1,0.5-2,1.3-2.5l0.5,0.9
	c-0.6,0.4-0.9,0.9-0.9,1.6c0,1.2,0.9,1.9,2.2,1.9c1.4,0,2.2-0.7,2.2-1.9c0-1-0.5-1.7-1.5-1.8v1.7h-0.9v-2.8
	C17.2,153.4,17.4,153.4,17.6,153.4z M20.3,150.3v1.1h-6.1v-1.1H20.3z M20.3,143.5v4.4h-6.1v-1.1h5.2v-3.3H20.3z M20.3,136.2v1.2
	l-1.6,0.6v2.5l1.6,0.6v1.2l-6.1-2.4v-1.3L20.3,136.2z M17.9,138.3l-2.7,1l2.7,1V138.3z M17.3,129c1.7,0,3.1,1.1,3.1,3v2.4h-6.1v-2.4
	C14.2,130.1,15.5,129,17.3,129z M17.3,130.1c-1.3,0-2.1,0.7-2.1,1.9v1.3h4.2v-1.3C19.4,130.8,18.5,130.1,17.3,130.1z M17.3,121.2
	c1.8,0,3.2,1.2,3.2,3c0,1.9-1.4,3.1-3.2,3.1c-1.8,0-3.2-1.2-3.2-3.1C14.1,122.4,15.5,121.2,17.3,121.2z M17.3,122.3
	c-1.3,0-2.2,0.7-2.2,1.9c0,1.2,0.9,1.9,2.2,1.9c1.3,0,2.2-0.7,2.2-1.9C19.5,123,18.5,122.3,17.3,122.3z M18.4,110.6
	c1.4,0,2.4,1.2,2.4,3c0,1.5-0.6,2.6-1.6,3.2l0,0l-0.6-0.9c0.9-0.5,1.2-1.4,1.2-2.4c0-1.1-0.5-1.8-1.3-1.8c-0.9,0-1.1,0.9-1.4,2.1
	c-0.3,1.3-0.7,2.6-2.2,2.6c-1.4,0-2.2-1.2-2.2-2.8c0-1.2,0.5-2.3,1.4-3l0,0l0.6,0.9c-0.7,0.5-1,1.3-1,2.2c0,0.8,0.3,1.6,1.1,1.6
	c0.8,0,1-0.8,1.3-1.8C16.4,111.9,16.8,110.6,18.4,110.6z M20.7,104v1h-1c0.7,0.5,1.1,1.2,1.1,2.1c0,1.3-0.9,2.2-2.3,2.2l0,0h-4v-1
	h3.7c0.7,0,1.6-0.2,1.6-1.4c0-1.1-0.8-1.9-1.9-1.9l0,0h-3.4v-1H20.7z M17.6,96.2c1.8,0,3.2,1.1,3.2,2.8c0,0.8-0.3,1.6-1.1,2.2l0,0
	h3.1v1h-8.2v-1h1c-0.8-0.6-1.2-1.3-1.2-2.2C14.4,97.3,15.8,96.2,17.6,96.2z M17.6,97.3c-1.3,0-2.3,0.6-2.3,1.9c0,1.3,1,2,2.3,2
	c1.3,0,2.3-0.7,2.3-2C19.9,97.9,18.9,97.3,17.6,97.3z M17.4,89.3c0.2,0,0.3,0,0.4,0l0,0v4.8c1.3-0.1,2-0.9,2-2.1
	c0-0.7-0.3-1.3-0.8-1.8l0,0l0.7-0.7c0.7,0.6,1.1,1.4,1.1,2.5c0,2-1.4,3.1-3.2,3.1c-1.8,0-3.2-1.1-3.2-3
	C14.4,90.5,15.7,89.3,17.4,89.3z M17,90.4c-1.2,0.1-1.8,0.9-1.8,1.9c0,1.1,0.7,1.8,1.8,1.9l0,0V90.4z M14.6,84.4l1,0.3
	c-0.1,0.2-0.2,0.4-0.2,0.7c0,0.8,0.7,1.6,2.1,1.6l0,0h3.2v1h-6.2v-1h1c-0.7-0.4-1.2-1-1.2-1.8C14.4,84.9,14.5,84.6,14.6,84.4
	L14.6,84.4z M18.2,76.9c1.5,0,2.6,1.2,2.6,3.3c0,1.7-0.7,3-2,3.7l0,0L18,82.4c0.9-0.5,1.2-1.4,1.2-2.3c0-0.8-0.3-1.4-0.8-1.4
	c-0.7,0-0.8,0.8-0.9,1.7c-0.3,1.6-0.8,3-2.5,3c-1.5,0-2.4-1.2-2.4-3.1c0-1.3,0.4-2.5,1.6-3.3l0,0l0.9,1.4c-0.7,0.5-0.9,1.2-0.9,2
	c0,0.7,0.2,1.1,0.7,1.1c0.6,0,0.7-0.8,0.8-1.6C16.1,78.4,16.6,76.9,18.2,76.9z M20.7,70.2V72H20c0.5,0.5,0.8,1.1,0.8,1.9
	c0,1.4-1,2.1-2.3,2.1l0,0h-4.2v-1.8h3.8c0.5,0,1.1-0.2,1.1-1c0-0.7-0.4-1.2-1.3-1.2l0,0h-3.6v-1.8H20.7z M17.5,62.2
	c1.9,0,3.3,1.1,3.3,2.9c0,0.8-0.3,1.4-0.9,1.9l0,0h0.7v1.8h-8.5V67h2.9c-0.6-0.5-0.9-1.2-0.9-1.9C14.2,63.3,15.6,62.2,17.5,62.2z
	 M17.5,64.1c-0.9,0-1.8,0.4-1.8,1.4c0,1,0.8,1.5,1.8,1.5c1,0,1.7-0.5,1.7-1.5C19.2,64.6,18.5,64.1,17.5,64.1z M18.7,55.6
	c1.3,0,2.2,1.1,2.2,2.9c0,1.4-0.5,2.6-1.5,3.2l0,0l-0.8-1.2c0.7-0.5,1-1.3,1-2.1c0-0.7-0.2-1-0.5-1c-0.5,0-0.5,0.6-0.6,1.3
	c-0.2,1.5-0.6,2.6-2,2.6c-1.4,0-2-1.2-2-2.7c0-1.4,0.6-2.5,1.2-3l0,0l1,1.1c-0.4,0.4-0.8,1.1-0.8,1.9c0,0.5,0.2,0.9,0.5,0.9
	c0.4,0,0.5-0.6,0.6-1.4C16.9,56.7,17.3,55.6,18.7,55.6z M20.7,52.8v1.8h-6.3v-1.8H20.7z M13.6,52.8v1.8h-1.3v-1.8H13.6z M20.7,45.2
	V47H20c0.6,0.5,0.9,1.2,0.9,1.9c0,1.8-1.4,2.9-3.3,2.9c-1.9,0-3.3-1.1-3.3-2.9c0-0.8,0.3-1.4,0.9-1.9l0,0h-2.9v-1.8H20.7z M17.5,47
	c-1,0-1.8,0.5-1.8,1.5c0,1,0.8,1.4,1.8,1.4c1,0,1.7-0.5,1.7-1.4C19.2,47.5,18.5,47,17.5,47z M13.6,42v1.8h-1.3V42H13.6z M20.7,42
	v1.8h-6.3V42H20.7z M17.5,34.3c2,0,3.3,1.3,3.3,3.4c0,2-1.3,3.4-3.3,3.4c-2,0-3.3-1.3-3.3-3.4C14.2,35.6,15.5,34.3,17.5,34.3z
	 M17.5,36.2c-1,0-1.8,0.5-1.8,1.4c0,0.9,0.7,1.4,1.8,1.4s1.8-0.5,1.8-1.4C19.3,36.7,18.6,36.2,17.5,36.2z M17.5,14.3
	c0.9,0,1.6,0.7,1.6,1.6c0,0.4-0.1,0.8-0.4,1.1c-0.1,0.1-0.2,0.3-0.2,0.4c0,0,0,0.1,0,0.1c0,0.2,0.1,0.4,0.2,0.5
	c0,0.1,0.1,0.1,0.2,0.1c0,0,0,0,0,0c0.1,0.1,0.2,0.1,0.3,0.2c0.2,0.2,0.4,0.5,0.6,0.7c0.1-0.1,0.1-0.3,0.1-0.4c0-0.1,0-0.2-0.1-0.3
	c0-0.1-0.1-0.1-0.1-0.2l0,0l0,0c0,0,0,0,0,0c-0.2-0.3-0.4-0.6-0.4-1c0-0.1,0-0.3,0.1-0.4c0.2-0.7,0.8-1.2,1.5-1.2
	c0.7,0,1.4,0.5,1.5,1.2c0,0.1,0,0.3,0,0.4c0,0.4-0.1,0.8-0.4,1l0,0c-0.1,0.2-0.2,0.3-0.2,0.5c0,0.3,0.2,0.5,0.4,0.7c0,0,0,0,0,0
	c0.4,0.3,0.8,0.6,1,1.1c0.2,0.3,0.3,0.7,0.3,1.1l0,0v3c0,0.2-0.1,0.5-0.1,0.7c-0.3,0.8-0.9,1.4-1.7,1.7c-0.1,0-0.1,0-0.2,0.1
	c-0.2,0-0.4,0.1-0.6,0.1c-0.3,0-0.6,0-0.8-0.1l0,0h0V27c0,0,0,0,0,0c0,0,0,0,0,0.1l0,0v0.1c0,0.2-0.1,0.5-0.1,0.7
	c-0.3,0.8-0.9,1.4-1.7,1.7c-0.1,0-0.1,0-0.2,0.1c-0.2,0-0.4,0.1-0.6,0.1c-1,0-1.9-0.6-2.4-1.5c-0.2-0.3-0.3-0.8-0.3-1.2l0,0v-0.1
	c-0.1,0-0.1,0-0.2,0c0,0,0,0,0,0c-0.2,0-0.4,0.1-0.6,0.1c-1.4,0-2.6-1.2-2.6-2.6l0,0v-2.9c0-0.9,0.5-1.8,1.2-2.2c0,0,0,0,0,0l0,0
	l0,0c0.2-0.1,0.4-0.4,0.4-0.7c0-0.2-0.1-0.4-0.2-0.5c0,0,0,0,0,0c-0.2-0.3-0.4-0.6-0.4-1c0-0.1,0-0.3,0.1-0.4
	c0.2-0.7,0.8-1.2,1.5-1.2c0.7,0,1.4,0.5,1.5,1.2c0,0.1,0.1,0.3,0.1,0.4c0,0.4-0.2,0.8-0.4,1.1c-0.1,0-0.1,0.1-0.1,0.2
	c0,0.1-0.1,0.2-0.1,0.3c0,0.2,0.1,0.3,0.1,0.4c0.1-0.3,0.3-0.5,0.6-0.7c0.1-0.1,0.2-0.2,0.3-0.2c0,0,0,0,0,0c0.1,0,0.1-0.1,0.2-0.1
	c0.1-0.1,0.2-0.3,0.2-0.5c0,0,0-0.1,0-0.1c0-0.2-0.1-0.3-0.2-0.4l0,0v0c0,0,0,0,0,0c-0.2-0.3-0.4-0.6-0.4-1
	C15.9,15,16.6,14.3,17.5,14.3z M17.5,19.6c-0.4,0-0.8,0.4-0.8,0.8l0,0V27c0,0.4,0.4,0.8,0.8,0.8c0.4,0,0.8-0.3,0.8-0.7l0,0v-6.8
	C18.3,19.9,17.9,19.6,17.5,19.6z M20.9,20.8c-0.4,0-0.8,0.4-0.8,0.8l0,0v2.9c0,0.5,0.4,0.8,0.8,0.8c0.4,0,0.8-0.3,0.8-0.8l0,0v-2.9
	C21.7,21.1,21.4,20.8,20.9,20.8z M14.1,20.8c-0.4,0-0.8,0.4-0.8,0.8l0,0v2.9c0,0.5,0.4,0.8,0.8,0.8s0.8-0.3,0.8-0.8l0,0v-2.9
	C14.8,21.1,14.5,20.8,14.1,20.8z M17.5,8c0.5,0,0.9,0.1,1.3,0.4c0.2,0.1,0.3,0.2,0.5,0.4l0,0l1.1,1.1l0.1,0.1l2.5,2.5l0.2,0.2
	l3.6,3.6l0.1,0l0,0c0.1,0.2,0.2,0.4,0.2,0.6c0,0.2-0.1,0.5-0.2,0.6l0,0l-0.1,0.1c-0.2,0.2-0.4,0.2-0.6,0.2c-0.3,0-0.5-0.1-0.7-0.3
	l0,0h0L23,15.1L22.9,15l-3.3-3.3l-0.9-0.9l0,0h0c0,0,0,0-0.1-0.1l0,0l0,0c-0.3-0.3-0.7-0.4-1.1-0.4c-0.4,0-0.8,0.2-1.1,0.4
	c0,0,0,0,0,0l0,0c0,0,0,0-0.1,0l0,0l0,0l-0.1,0.1l-0.9,0.9L12.1,15L12,15.1l-2.4,2.4c-0.2,0.2-0.4,0.3-0.7,0.3
	c-0.2,0-0.5-0.1-0.6-0.2l0,0v0l-0.1-0.1C8.1,17.3,8,17.1,8,16.8c0-0.2,0.1-0.5,0.2-0.6l0,0l0.1-0.1h0l3.6-3.6l0.1-0.2l2.5-2.5
	l0.1-0.1l1-1l0.2-0.2c0.1-0.1,0.2-0.2,0.4-0.3C16.6,8.1,17,8,17.5,8z"/>
</svg>
