<?xml version="1.0" encoding="utf-8"?>
<!-- Generator: Adobe Illustrator 22.1.0, SVG Export Plug-In . SVG Version: 6.00 Build 0)  -->
<svg version="1.1" id="Layer_1" xmlns="http://www.w3.org/2000/svg" xmlns:xlink="http://www.w3.org/1999/xlink" x="0px" y="0px"
	 width="143.1px" height="24px" viewBox="0 0 143.1 24" enable-background="new 0 0 143.1 24" xml:space="preserve">
<path id="Combined-Shape" fill="#FFFFFF" d="M74.3,0c1.7,0,3.1,0.7,3.1,2.2c0,0.9-0.7,1.6-1.5,1.6c-0.4,0-0.7-0.1-1-0.1
	c-0.7,0-1,0.4-1,1.1v2h1.4c1.4,0,2.1,0.4,2.1,1.5c0,1.1-0.7,1.5-2.1,1.5h-1.4v11.7c0,1.5-0.9,2.3-2.3,2.3c-1.4,0-2.3-0.8-2.3-2.3
	V9.9H68c-1.3,0-1.9-0.5-1.9-1.5c0-1,0.5-1.5,1.9-1.5h1.1V4.5C69.1,1.6,71.5,0,74.3,0z M117.2,6.4c3.2,0,5.9,1.5,5.9,5.7v9.6
	c0,1.2-0.5,2.3-2.3,2.3c-1.8,0-2.3-1.1-2.3-2.3v-8.4c0-1.7-0.7-3-2.6-3c-1.8,0-3.4,1.4-3.4,3.6v7.8c0,1.2-0.5,2.3-2.3,2.3
	c-1.8,0-2.3-1.1-2.3-2.3v-8.4c0-1.7-0.7-3-2.6-3c-1.8,0-3.4,1.4-3.4,3.6v7.8c0,1.2-0.5,2.3-2.3,2.3c-1.8,0-2.3-1.1-2.3-2.3V8.8
	c0-1.4,0.8-2.3,2.2-2.3c1.4,0,2.2,0.9,2.2,2.3v0.6h0.1c1.2-1.9,3.3-2.9,5.7-2.9c1.6,0,3.6,0.7,4.5,2.9C113,7.6,114.7,6.4,117.2,6.4z
	 M58,6.4c3.2,0,5.9,1.5,5.9,5.7v9.6c0,1.2-0.5,2.3-2.3,2.3c-1.8,0-2.3-1.1-2.3-2.3v-8.4c0-1.7-0.7-3-2.6-3c-1.8,0-3.4,1.4-3.4,3.6
	v7.8c0,1.2-0.5,2.3-2.3,2.3c-1.8,0-2.3-1.1-2.3-2.3v-8.4c0-1.7-0.7-3-2.6-3c-1.8,0-3.4,1.4-3.4,3.6v7.8c0,1.2-0.5,2.3-2.3,2.3
	c-1.8,0-2.3-1.1-2.3-2.3V8.8c0-1.4,0.8-2.3,2.2-2.3c1.4,0,2.2,0.9,2.2,2.3v0.6h0.1c1.2-1.9,3.3-2.9,5.7-2.9c1.6,0,3.6,0.7,4.5,2.9
	C53.8,7.6,55.5,6.4,58,6.4z M8.8,6.4c3.9,0,6.8,2.2,6.8,4.4c0,1.3-1,2-2.2,2c-2.2,0-1.4-2.8-4.8-2.8c-1.8,0-4,1.2-4,5.5
	c0,2.9,1.4,4.8,4,4.8c3.3,0,2.6-3,5-3c1.2,0,2,0.9,2,1.8c0,2-2.3,4.9-7.1,4.9C2.7,24,0,20.4,0,15.6C0,10.2,3.1,6.4,8.8,6.4z
	 M26.9,6.1c2.1,0.1,4.1,1,5.7,2.6c1.7,1.7,2.6,4,2.6,6.3c0,2.3-0.9,4.6-2.6,6.3c-1.7,1.7-4,2.6-6.3,2.6h0c-2.3,0-4.6-0.9-6.3-2.6
	c-1.7-1.7-2.6-4-2.6-6.3c0-2.3,0.9-4.6,2.6-6.3c0.8-0.8,2.1-0.8,2.9,0c0.8,0.8,0.8,2.1,0,2.9c-1,0.9-1.4,2.2-1.4,3.4
	c0,1.2,0.5,2.5,1.4,3.4c1,0.9,2.2,1.4,3.4,1.4c1.3,0,2.5-0.5,3.4-1.4c1-0.9,1.4-2.2,1.4-3.4c0-1.2-0.5-2.5-1.4-3.4
	c-0.9-0.9-2-1.3-3.1-1.4c-1.1-0.1-2-1-1.9-2.2C24.8,6.9,25.7,6.1,26.9,6.1z M134.4,6.5c0.7,0,1.4,0.4,1.8,1.1l6.8,13.4l0,0
	c0.5,1,0.1,2.1-0.9,2.6c-0.3,0.1-0.6,0.2-0.9,0.2c-0.7,0-1.4-0.4-1.8-1.1l-5-9.9l-3.6,7.1l4.3,0c1.1,0,2,0.9,2,1.9
	c0,1.1-0.9,1.9-2,1.9h-7.5c-0.7,0-1.3-0.3-1.7-0.9c-0.4-0.6-0.4-1.3-0.1-1.9l6.7-13.4C132.9,6.9,133.6,6.5,134.4,6.5z M87.5,7.5
	L94.2,21c0.3,0.6,0.3,1.3-0.1,1.9c-0.4,0.6-1,0.9-1.7,0.9H78.9c-0.7,0-1.3-0.3-1.7-0.9c-0.4-0.6-0.4-1.3-0.1-1.9l3.8-7.5
	c0.5-1,1.7-1.4,2.6-0.9c1,0.5,1.4,1.7,0.9,2.6l-2.3,4.6h7.1L84,9.3h0c-0.5-1-0.1-2.1,0.9-2.6C85.8,6.2,87,6.6,87.5,7.5z"/>
</svg>
