<svg xmlns="http://www.w3.org/2000/svg" xmlns:xlink="http://www.w3.org/1999/xlink" width="512" height="156" viewBox="0 0 512 156"><defs><clipPath id="b"><rect width="512" height="156"/></clipPath></defs><g id="a" clip-path="url(#b)"><g transform="translate(1323.733 737.062)"><g transform="translate(-1315 -729.062)"><g transform="translate(0 0)"><path d="M109.965,45.215a25.6,25.6,0,0,0,9.728-1.815,22.882,22.882,0,0,0,12.828-12.828,25.719,25.719,0,0,0,1.836-9.83V9.565a25.763,25.763,0,0,0-1.836-9.81,23.026,23.026,0,0,0-5.1-7.75,23.509,23.509,0,0,0-7.73-5.078,25.347,25.347,0,0,0-9.728-1.836H95.607a25.5,25.5,0,0,0-9.749,1.836A23.459,23.459,0,0,0,78.108-8a23.281,23.281,0,0,0-5.119,7.75,25.515,25.515,0,0,0-1.856,9.81V20.741a25.471,25.471,0,0,0,1.856,9.83,23.56,23.56,0,0,0,5.119,7.75,23.043,23.043,0,0,0,7.75,5.078,25.752,25.752,0,0,0,9.749,1.815h14.358M95.607-4.3h14.358a15.241,15.241,0,0,1,5.609,1,12.3,12.3,0,0,1,7.179,7.179,15.475,15.475,0,0,1,1,5.69V20.741a15.475,15.475,0,0,1-1,5.69,12.432,12.432,0,0,1-2.835,4.365,12.792,12.792,0,0,1-4.385,2.814,15.358,15.358,0,0,1-5.649,1H95.607a15.358,15.358,0,0,1-5.649-1A12.792,12.792,0,0,1,85.573,30.8a12.432,12.432,0,0,1-2.835-4.365,15.474,15.474,0,0,1-1-5.69V9.565a15.474,15.474,0,0,1,1-5.69A12.432,12.432,0,0,1,85.573-.49,12.792,12.792,0,0,1,89.957-3.3a15.358,15.358,0,0,1,5.649-1M276.088,44.4V33.794H237.909a4.367,4.367,0,0,1-3.222-1.1,4.308,4.308,0,0,1-1.1-3.182v-33h42.5V-14.093H228.324a5.46,5.46,0,0,0-2.121.408,5.031,5.031,0,0,0-1.693,1.142,5.425,5.425,0,0,0-1.122,1.713,5.354,5.354,0,0,0-.408,2.08V29.511a14.816,14.816,0,0,0,1.489,6.955,14.065,14.065,0,0,0,8.546,7.159,17.008,17.008,0,0,0,4.813.775h38.261m-85.407,0a17.756,17.756,0,0,0,3.651-.408,18.188,18.188,0,0,0,3.814-1.264,18.76,18.76,0,0,0,3.63-2.2,14.023,14.023,0,0,0,3.059-3.263,16.873,16.873,0,0,0,2.1-4.426,18.654,18.654,0,0,0,.8-5.649,18.907,18.907,0,0,0-.775-5.629,16.113,16.113,0,0,0-2.1-4.405,15.279,15.279,0,0,0-3.039-3.284,18.4,18.4,0,0,0-3.61-2.264,18.174,18.174,0,0,0-3.814-1.326,18.731,18.731,0,0,0-3.63-.469H166.289a6.2,6.2,0,0,1-4.711-1.774A6.713,6.713,0,0,1,159.885,3.2a6.877,6.877,0,0,1,1.693-4.854,6.09,6.09,0,0,1,4.711-1.836h36.1V-14.093h-36.1a18.9,18.9,0,0,0-5.547.918,16.454,16.454,0,0,0-5.527,2.978,16.42,16.42,0,0,0-4.242,5.343A17.432,17.432,0,0,0,149.28,3.2a17.559,17.559,0,0,0,1.693,8.076,16.138,16.138,0,0,0,4.242,5.343,16.641,16.641,0,0,0,5.527,2.957,18.9,18.9,0,0,0,5.547.918h24.392a7.03,7.03,0,0,1,2.672.489,5.66,5.66,0,0,1,2.039,1.387,6.2,6.2,0,0,1,1.285,2.121,7.767,7.767,0,0,1,.449,2.692A6.729,6.729,0,0,1,195.433,32a6.216,6.216,0,0,1-4.752,1.795H149.769V44.4h40.912m-151.4,0a15.534,15.534,0,0,0,5.955-1.122,13.912,13.912,0,0,0,7.791-7.852,15.676,15.676,0,0,0,1.1-5.915v-43.6H43.443v43.6a4.321,4.321,0,0,1-1.1,3.161,4.092,4.092,0,0,1-3.059,1.122H.41V44.4H39.283M271.316,20.5V9.809H237.827V20.5h33.488M109.965,49.215H95.607a29.849,29.849,0,0,1-11.249-2.107A27.127,27.127,0,0,1,75.28,41.15a27.646,27.646,0,0,1-5.987-9.05,29.562,29.562,0,0,1-2.16-11.359V9.565A29.608,29.608,0,0,1,69.29-1.768a27.365,27.365,0,0,1,6-9.064,27.546,27.546,0,0,1,9.055-5.943,29.6,29.6,0,0,1,11.263-2.133h14.358a29.44,29.44,0,0,1,11.249,2.136,27.6,27.6,0,0,1,9.029,5.941,27.108,27.108,0,0,1,5.984,9.079,29.858,29.858,0,0,1,2.131,11.319V20.741a29.812,29.812,0,0,1-2.133,11.345A26.88,26.88,0,0,1,121.2,47.105,29.692,29.692,0,0,1,109.965,49.215ZM95.607-.3a11.461,11.461,0,0,0-4.19.723,8.756,8.756,0,0,0-3.032,1.935,8.4,8.4,0,0,0-1.923,2.98,11.582,11.582,0,0,0-.724,4.23V20.741a11.581,11.581,0,0,0,.723,4.23,8.4,8.4,0,0,0,1.923,2.98,8.756,8.756,0,0,0,3.032,1.935,11.461,11.461,0,0,0,4.19.723h14.276a11.461,11.461,0,0,0,4.189-.723,8.756,8.756,0,0,0,3.032-1.935,8.4,8.4,0,0,0,1.923-2.98,11.583,11.583,0,0,0,.724-4.23V9.565a11.583,11.583,0,0,0-.723-4.23A8.31,8.31,0,0,0,114.114.42,11.341,11.341,0,0,0,109.965-.3ZM276.088,48.4H237.827a21.056,21.056,0,0,1-5.951-.94,18.062,18.062,0,0,1-10.948-9.133,18.8,18.8,0,0,1-1.947-8.814V-8.75a9.357,9.357,0,0,1,.716-3.619,9.434,9.434,0,0,1,1.946-2.963,9.032,9.032,0,0,1,3.022-2.046,9.463,9.463,0,0,1,3.66-.716h47.765a4,4,0,0,1,4,4V-3.488a4,4,0,0,1-4,4h-38.5v5.3q.12-.007.242-.007h33.488a4,4,0,0,1,4,4V20.5a4,4,0,0,1-4,4H237.827q-.122,0-.242-.007v5.022c0,.108,0,.2.011.269.082.008.186.014.313.014h38.179a4,4,0,0,1,4,4V44.4A4,4,0,0,1,276.088,48.4Zm-85.407,0H149.769a4,4,0,0,1-4-4V33.794a4,4,0,0,1,4-4h40.912c1.333,0,1.716-.406,1.842-.539a2.71,2.71,0,0,0,.6-2.069,3.838,3.838,0,0,0-.2-1.315,2.231,2.231,0,0,0-.456-.771,1.677,1.677,0,0,0-.62-.409,3.109,3.109,0,0,0-1.165-.195H166.289a22.965,22.965,0,0,1-6.726-1.1,20.7,20.7,0,0,1-6.848-3.656,20.176,20.176,0,0,1-5.3-6.643,21.562,21.562,0,0,1-2.133-9.9,21.431,21.431,0,0,1,2.137-9.889,20.462,20.462,0,0,1,5.284-6.622A20.51,20.51,0,0,1,159.563-17a22.965,22.965,0,0,1,6.726-1.1h36.1a4,4,0,0,1,4,4V-3.488a4,4,0,0,1-4,4h-36.1c-1.266,0-1.633.4-1.771.547a2.89,2.89,0,0,0-.633,2.142c0,1.457.442,1.92.587,2.072.126.133.511.536,1.817.536h24.569a22.821,22.821,0,0,1,4.407.564,22.262,22.262,0,0,1,4.653,1.614,22.493,22.493,0,0,1,4.393,2.752,19.345,19.345,0,0,1,3.835,4.136,20.174,20.174,0,0,1,2.63,5.491,22.969,22.969,0,0,1,.956,6.819,22.716,22.716,0,0,1-.982,6.858,20.938,20.938,0,0,1-2.607,5.468,18.081,18.081,0,0,1-3.93,4.185,22.85,22.85,0,0,1-4.4,2.668,22.276,22.276,0,0,1-4.651,1.54A21.832,21.832,0,0,1,190.681,48.4Zm-151.4,0H.41a4,4,0,0,1-4-4V33.794a4,4,0,0,1,4-4H39.283c.056,0,.105,0,.148,0a2.725,2.725,0,0,0,.013-.279v-43.6a4,4,0,0,1,4-4H54.13a4,4,0,0,1,4,4v43.6a19.726,19.726,0,0,1-1.391,7.41,17.911,17.911,0,0,1-9.982,10.057A19.581,19.581,0,0,1,39.283,48.4Z" transform="translate(-0.41 14.909)" fill="#fff"/><path d="M494.584,43.788V33.183H458.73l35-39.036a4.825,4.825,0,0,0,1.305-2.672,5.366,5.366,0,0,0-.367-3,5.415,5.415,0,0,0-1.978-2.3,5.111,5.111,0,0,0-2.876-.877H441.924V-4.1H477.86L442.781,34.937a5.3,5.3,0,0,0-1.285,2.692,4.8,4.8,0,0,0,.428,2.978,5.414,5.414,0,0,0,1.978,2.3,5.111,5.111,0,0,0,2.876.877h47.806m-68.969,0V-9.361a5.356,5.356,0,0,0-.408-2.08,5.255,5.255,0,0,0-1.142-1.713,5.255,5.255,0,0,0-1.713-1.142,5.354,5.354,0,0,0-2.08-.408h-23.9A30.818,30.818,0,0,0,384.7-12.542a27.856,27.856,0,0,0-9.259,6.037,27.509,27.509,0,0,0-6.118,9.259,30.842,30.842,0,0,0-2.2,11.788V43.788h10.605V29.43H415.01V43.788h10.605M396.369-4.1H415.01V18.825H377.728V14.542a20.454,20.454,0,0,1,1.244-7.566,16.711,16.711,0,0,1,3.161-5.2,15.26,15.26,0,0,1,4.2-3.263,22.716,22.716,0,0,1,4.344-1.754,20.931,20.931,0,0,1,3.63-.714q1.57-.143,2.06-.143M353.424,43.788l-22.149-19.13a21.182,21.182,0,0,0,4.181-.449,20.128,20.128,0,0,0,4.405-1.448,21.267,21.267,0,0,0,4.181-2.549,17.111,17.111,0,0,0,3.528-3.732A18.232,18.232,0,0,0,350,11.442a21.611,21.611,0,0,0,.9-6.486V-1.815a14.662,14.662,0,0,0-.673-4.2,12.512,12.512,0,0,0-2.2-4.181,12.2,12.2,0,0,0-3.977-3.222,12.776,12.776,0,0,0-6-1.285H297.787a5.46,5.46,0,0,0-2.121.408,5.031,5.031,0,0,0-1.693,1.142,5.425,5.425,0,0,0-1.122,1.713,5.354,5.354,0,0,0-.408,2.08V43.788h10.605V-4.1h35a6.869,6.869,0,0,1,.714.041,1.657,1.657,0,0,1,.734.265,1.639,1.639,0,0,1,.571.693,3.27,3.27,0,0,1,.224,1.366V4.957a9.771,9.771,0,0,1-.653,3.691,7.757,7.757,0,0,1-1.856,2.753,9.067,9.067,0,0,1-2.855,1.815,12.272,12.272,0,0,1-3.651.836H307.291V24.658h7.628l22.108,19.13h16.4m-79.982,0V-9.361a5.353,5.353,0,0,0-.408-2.08,5.256,5.256,0,0,0-1.142-1.713,5.255,5.255,0,0,0-1.713-1.142,5.353,5.353,0,0,0-2.08-.408H244.2a30.818,30.818,0,0,0-11.666,2.162,27.854,27.854,0,0,0-9.259,6.037,27.51,27.51,0,0,0-6.118,9.259,30.841,30.841,0,0,0-2.2,11.788V43.788h10.605V29.43h37.282V43.788h10.605M244.2-4.1h18.641V18.825H225.555V14.542A20.456,20.456,0,0,1,226.8,6.976a16.713,16.713,0,0,1,3.161-5.2,15.26,15.26,0,0,1,4.2-3.263,22.717,22.717,0,0,1,4.344-1.754,20.93,20.93,0,0,1,3.63-.714q1.57-.143,2.06-.143M199.333,43.788V33.183H161.073A3.9,3.9,0,0,1,156.79,28.9V.266A4.427,4.427,0,0,1,157.891-3a4.308,4.308,0,0,1,3.182-1.1h38.261V-14.7H161.073a16,16,0,0,0-4.895.693,14.017,14.017,0,0,0-3.814,1.856,13.287,13.287,0,0,0-2.835,2.672,14.986,14.986,0,0,0-1.917,3.161,16.254,16.254,0,0,0-1.081,3.345,15.807,15.807,0,0,0-.347,3.161V28.9a16.2,16.2,0,0,0,.693,4.915,13.958,13.958,0,0,0,1.856,3.834,12.866,12.866,0,0,0,2.672,2.814,15.471,15.471,0,0,0,3.161,1.9,16.253,16.253,0,0,0,3.345,1.081,15.806,15.806,0,0,0,3.161.347h38.261m-66.848,0V33.183H89.371V-14.7H78.765V38.445a5.459,5.459,0,0,0,.408,2.121,5.106,5.106,0,0,0,2.814,2.815,5.46,5.46,0,0,0,2.121.408h48.377m-72.722,0V-9.361a5.354,5.354,0,0,0-.408-2.08,5.256,5.256,0,0,0-1.142-1.713A5.256,5.256,0,0,0,56.5-14.3a5.354,5.354,0,0,0-2.08-.408h-23.9a30.818,30.818,0,0,0-11.666,2.162A27.855,27.855,0,0,0,9.593-6.505,27.511,27.511,0,0,0,3.474,2.754a30.842,30.842,0,0,0-2.2,11.788V43.788H11.877V29.43H49.159V43.788H59.764M30.518-4.1H49.159V18.825H11.877V14.542a20.454,20.454,0,0,1,1.244-7.566,16.712,16.712,0,0,1,3.161-5.2,15.26,15.26,0,0,1,4.2-3.263,22.716,22.716,0,0,1,4.344-1.754,20.932,20.932,0,0,1,3.63-.714q1.57-.143,2.06-.143M494.584,47.788H446.778a9.068,9.068,0,0,1-5.082-1.541,9.379,9.379,0,0,1-3.39-3.935,8.746,8.746,0,0,1-.753-5.358,9.265,9.265,0,0,1,2.244-4.682l.008-.009L468.888-.1H441.924a4,4,0,0,1-4-4V-14.7a4,4,0,0,1,4-4h47.887a9.068,9.068,0,0,1,5.083,1.541,9.382,9.382,0,0,1,3.409,3.978q.02.044.039.088a9.331,9.331,0,0,1,.643,5.19,8.772,8.772,0,0,1-2.319,4.77L467.688,29.183h26.9a4,4,0,0,1,4,4V43.788A4,4,0,0,1,494.584,47.788Zm-68.969,0H415.01a4,4,0,0,1-4-4V33.43H381.728V43.788a4,4,0,0,1-4,4H367.123a4,4,0,0,1-4-4V14.542a34.959,34.959,0,0,1,2.5-13.3A31.613,31.613,0,0,1,372.63-9.349a31.963,31.963,0,0,1,10.573-6.9A34.936,34.936,0,0,1,396.369-18.7h23.9a9.358,9.358,0,0,1,3.619.716,9.26,9.26,0,0,1,3,2.006,9.259,9.259,0,0,1,2.006,3,9.359,9.359,0,0,1,.716,3.619V43.788A4,4,0,0,1,425.615,47.788ZM381.728,14.825H411.01V-.1H396.371c-.035,0-.377.006-1.7.126a17.116,17.116,0,0,0-2.924.585,18.85,18.85,0,0,0-3.573,1.451,11.353,11.353,0,0,0-3.1,2.422,12.833,12.833,0,0,0-2.387,3.971,16.648,16.648,0,0,0-.96,6.085Zm-28.3,32.963h-16.4a4,4,0,0,1-2.617-.975L313.428,28.658h-6.137q-.122,0-.242-.007V43.788a4,4,0,0,1-4,4H292.443a4,4,0,0,1-4-4V-9.361a9.358,9.358,0,0,1,.716-3.619,9.433,9.433,0,0,1,1.946-2.963,9.031,9.031,0,0,1,3.022-2.046,9.462,9.462,0,0,1,3.66-.716h40.259a16.757,16.757,0,0,1,7.855,1.743,16.224,16.224,0,0,1,5.257,4.286,16.551,16.551,0,0,1,2.894,5.51,18.709,18.709,0,0,1,.842,5.351V4.957a25.685,25.685,0,0,1-1.081,7.685,22.3,22.3,0,0,1-2.968,6.134,21.185,21.185,0,0,1-4.352,4.6,25.375,25.375,0,0,1-4.967,3.025q-.707.324-1.423.6l15.934,13.763a4,4,0,0,1-2.615,7.027ZM307.048-.1V10.06q.12-.007.242-.007H331.1a8.232,8.232,0,0,0,2.318-.541A5.06,5.06,0,0,0,335.027,8.5a3.771,3.771,0,0,0,.9-1.354,5.879,5.879,0,0,0,.36-2.19V-.1ZM273.442,47.788H262.836a4,4,0,0,1-4-4V33.43H229.555V43.788a4,4,0,0,1-4,4H214.949a4,4,0,0,1-4-4V14.542a34.958,34.958,0,0,1,2.5-13.3,31.614,31.614,0,0,1,7.007-10.588,31.961,31.961,0,0,1,10.573-6.9A34.936,34.936,0,0,1,244.2-18.7h23.9a9.357,9.357,0,0,1,3.619.716,9.258,9.258,0,0,1,3,2.006,9.259,9.259,0,0,1,2.006,3,9.357,9.357,0,0,1,.716,3.619V43.788A4,4,0,0,1,273.442,47.788ZM229.555,14.825h29.282V-.1H244.2c-.035,0-.377.006-1.7.126a17.117,17.117,0,0,0-2.924.585A18.844,18.844,0,0,0,236,2.064a11.35,11.35,0,0,0-3.1,2.422,12.837,12.837,0,0,0-2.387,3.971,16.649,16.649,0,0,0-.96,6.085ZM199.333,47.788H161.073a19.872,19.872,0,0,1-3.964-.428,20.336,20.336,0,0,1-4.167-1.344,19.547,19.547,0,0,1-3.978-2.383,16.917,16.917,0,0,1-3.5-3.681,18.009,18.009,0,0,1-2.4-4.925,20.248,20.248,0,0,1-.881-6.127V.184a19.875,19.875,0,0,1,.428-3.964,20.339,20.339,0,0,1,1.344-4.167,19.055,19.055,0,0,1,2.424-4,17.343,17.343,0,0,1,3.681-3.475,18.07,18.07,0,0,1,4.894-2.394,20.047,20.047,0,0,1,6.116-.885h38.261a4,4,0,0,1,4,4V-4.1a4,4,0,0,1-4,4H161.073c-.106,0-.194,0-.266.011a3.4,3.4,0,0,0-.017.354V28.9a2.6,2.6,0,0,0,.013.27,2.608,2.608,0,0,0,.27.013h38.261a4,4,0,0,1,4,4V43.788A4,4,0,0,1,199.333,47.788Zm-66.848,0H84.109a9.462,9.462,0,0,1-3.659-.716A9.106,9.106,0,0,1,75.481,42.1a9.461,9.461,0,0,1-.716-3.659V-14.7a4,4,0,0,1,4-4H89.371a4,4,0,0,1,4,4V29.183h39.115a4,4,0,0,1,4,4V43.788A4,4,0,0,1,132.485,47.788Zm-72.722,0H49.159a4,4,0,0,1-4-4V33.43H15.877V43.788a4,4,0,0,1-4,4H1.272a4,4,0,0,1-4-4V14.542a34.96,34.96,0,0,1,2.5-13.3A31.614,31.614,0,0,1,6.779-9.349a31.962,31.962,0,0,1,10.573-6.9A34.936,34.936,0,0,1,30.518-18.7h23.9a9.358,9.358,0,0,1,3.619.716,9.26,9.26,0,0,1,3,2.006,9.259,9.259,0,0,1,2.006,3,9.358,9.358,0,0,1,.716,3.619V43.788A4,4,0,0,1,59.764,47.788ZM15.877,14.825H45.159V-.1H30.52c-.035,0-.377.006-1.7.126A17.118,17.118,0,0,0,25.9.612a18.844,18.844,0,0,0-3.573,1.451,11.352,11.352,0,0,0-3.1,2.422,12.834,12.834,0,0,0-2.387,3.971,16.647,16.647,0,0,0-.96,6.085Z" transform="translate(-0.568 94.741)" fill="#fff"/></g></g></g></g></svg>